<svg width="640" height="512" xmlns="http://www.w3.org/2000/svg" xmlns:xlink="http://www.w3.org/1999/xlink" overflow="hidden"><defs><clipPath id="clip0"><rect x="320" y="104" width="640" height="512"/></clipPath></defs><g clip-path="url(#clip0)" transform="translate(-320 -104)"><path d="M669.9 340.3 603.8 340.3 603.8 280.9 669.9 280.9 669.9 340.3ZM669.9 136 603.8 136 603.8 196.7 669.9 196.7 669.9 136ZM748.1 280.8 682 280.8 682 340.2 748.1 340.2 748.1 280.8ZM591.8 208.7 525.7 208.7 525.7 268.8 591.8 268.8 591.8 208.7ZM669.9 208.7 603.8 208.7 603.8 268.8 669.9 268.8 669.9 208.7ZM946.7 308.7C932.3 299 899.1 295.5 873.6 300.3 870.3 276.3 856.9 255.4 832.5 236.6L818.5 227.3 809.2 241.3C790.8 269.1 785.8 314.9 805.5 345.1 796.8 349.8 779.7 356.2 757.1 355.8L322.4 355.8C313.7 406.6 328.2 472.6 366.4 517.9 403.5 561.8 459.1 584.1 531.8 584.1 689.2 584.1 805.7 511.6 860.2 379.9 881.6 380.3 927.8 380 951.5 334.7 953 332.2 958.1 321.5 960 317.6L946.7 308.7ZM435.6 280.8 369.6 280.8 369.6 340.2 435.7 340.2 435.7 280.8ZM513.7 280.8 447.6 280.8 447.6 340.2 513.7 340.2 513.7 280.8ZM591.8 280.8 525.7 280.8 525.7 340.2 591.8 340.2 591.8 280.8ZM513.7 208.7 447.6 208.7 447.6 268.8 513.7 268.8 513.7 208.7Z" fill="#478DDA"/></g></svg>