<svg width="3195" height="2173" xmlns="http://www.w3.org/2000/svg" xmlns:xlink="http://www.w3.org/1999/xlink" overflow="hidden"><defs><clipPath id="clip0"><rect x="629" y="263" width="3195" height="2173"/></clipPath></defs><g clip-path="url(#clip0)" transform="translate(-629 -263)"><rect x="629" y="263" width="3195" height="2173" fill="#FFFFFF"/><path d="M3053 2028.5C3053 2067.99 2641.55 2100 2134 2100 1626.45 2100 1215 2067.99 1215 2028.5 1215 1989.01 1626.45 1957 2134 1957 2641.55 1957 3053 1989.01 3053 2028.5Z" fill="#3B3838" fill-rule="evenodd" fill-opacity="0.101961"/><path d="M2948.2 1621.52C2942.7 1604.83 2920.43 1597.14 2898.47 1604.37 2895.3 1605.41 2892.24 1606.73 2889.32 1608.33 2887.91 1607.95 2886.47 1607.6 2885 1607.34 2886.2 1602.54 2886.65 1597.58 2886.36 1592.64 2901.77 1582.31 2910.7 1564.69 2909.93 1546.14 2925.29 1535.79 2934.18 1518.18 2933.41 1499.65 2941.02 1494.62 2947.16 1487.66 2951.2 1479.47 2961.8 1458.46 2957.41 1434.86 2941.39 1426.74 2925.36 1418.62 2903.76 1429.08 2893.17 1450.08 2888.97 1458.19 2887 1467.27 2887.48 1476.39 2872.11 1486.75 2863.22 1504.35 2864 1522.89 2848.63 1533.24 2839.74 1550.85 2840.52 1569.38 2825.12 1579.72 2816.19 1597.34 2816.95 1615.89 2809.34 1620.92 2803.19 1627.88 2799.16 1636.07 2797.16 1640.02 2795.65 1644.2 2794.66 1648.5 2792 1644.62 2788.76 1641.16 2785.06 1638.26 2784.63 1634.95 2783.91 1631.69 2782.9 1628.52 2775.67 1606.49 2756.3 1593.07 2739.65 1598.57 2723 1604.07 2715.31 1626.35 2722.53 1648.37 2725.48 1657.82 2731.17 1666.17 2738.87 1672.37 2739.3 1675.68 2740.02 1678.94 2741.04 1682.11 2745.23 1694.89 2753.51 1704.76 2762.98 1709.72 2762.14 1712.48 2761.54 1715.31 2761.19 1718.17 2752.26 1726.77 2746.51 1738.15 2744.88 1750.45 2735.95 1759.06 2730.2 1770.45 2728.58 1782.76 2724.16 1787.02 2720.5 1792.01 2717.77 1797.51 2707.15 1818.52 2711.54 1842.14 2727.56 1850.24 2743.59 1858.34 2765.19 1847.92 2775.8 1826.9 2778.6 1821.41 2780.43 1815.49 2781.21 1809.38 2790.14 1800.78 2795.89 1789.39 2797.51 1777.09 2806.45 1768.49 2812.2 1757.09 2813.82 1744.78 2822.68 1736.16 2828.36 1724.77 2829.92 1712.49 2838.89 1703.89 2844.66 1692.48 2846.27 1680.14 2849.02 1677.53 2851.48 1674.63 2853.6 1671.48 2862.43 1673.3 2871.59 1672.72 2880.13 1669.81 2883.3 1668.78 2886.36 1667.45 2889.28 1665.85 2898.84 1668.38 2908.93 1668.01 2918.29 1664.81 2940.2 1657.64 2953.67 1638.24 2948.2 1621.52Z" fill="#3F3D56" fill-rule="evenodd"/><path d="M2908.98 1555.99C2906.9 1558.2 2904.62 1560.18 2902.18 1561.89 2902.49 1568.02 2901.74 1574.15 2899.98 1579.99 2901.54 1577.65 2902.93 1575.19 2904.13 1572.62 2906.59 1567.41 2908.22 1561.78 2908.98 1555.99Z" fill-rule="evenodd"/><path d="M2932.98 1509.99C2930.67 1512.2 2928.14 1514.18 2925.42 1515.89 2925.76 1522.02 2924.94 1528.15 2922.98 1533.99 2924.71 1531.65 2926.26 1529.18 2927.59 1526.6 2930.31 1521.39 2932.13 1515.78 2932.98 1509.99Z" fill-rule="evenodd"/><path d="M2879.6 1492.41C2879.4 1489.26 2879.52 1486.11 2879.98 1482.99 2875.66 1487.07 2872.07 1491.81 2869.35 1497.02 2868.01 1499.59 2866.88 1502.25 2865.98 1504.99 2869.66 1500.01 2874.28 1495.74 2879.6 1492.41Z" fill-rule="evenodd"/><path d="M2730.98 1772.99C2732.81 1770.35 2734.88 1767.89 2737.16 1765.66 2737.51 1762.72 2738.12 1759.81 2738.98 1756.99 2737.16 1759.52 2735.55 1762.21 2734.18 1765.03 2732.92 1767.59 2731.85 1770.25 2730.98 1772.99Z" fill-rule="evenodd"/><path d="M2746.98 1740.99C2748.83 1738.31 2750.92 1735.82 2753.22 1733.56 2753.57 1730.65 2754.16 1727.78 2754.98 1724.99L2754.98 1724.99C2753.22 1727.48 2751.66 1730.12 2750.32 1732.88 2749.01 1735.49 2747.9 1738.2 2746.98 1740.99Z" fill-rule="evenodd"/><path d="M2885.73 1602.49C2883.48 1604.71 2881 1606.69 2878.34 1608.39 2878.63 1613.3 2878.17 1618.22 2876.98 1622.99 2878.43 1623.24 2879.87 1623.57 2881.29 1623.98 2884.2 1622.39 2887.25 1621.07 2890.4 1620.05 2912.34 1612.86 2934.51 1620.5 2939.96 1637.08 2941.31 1641.25 2941.55 1645.7 2940.65 1649.99 2947.87 1641.51 2950.86 1631.19 2947.76 1621.72 2942.29 1605.14 2920.09 1597.5 2898.2 1604.69 2895.05 1605.71 2892 1607.03 2889.09 1608.62 2887.69 1608.24 2886.24 1607.89 2884.78 1607.63 2885.19 1605.91 2885.49 1604.21 2885.73 1602.49Z" fill-rule="evenodd"/><path d="M2722.98 1788.98C2720.93 1791.65 2719.13 1794.48 2717.59 1797.45 2716.17 1800.2 2714.96 1803.06 2713.98 1805.99 2716.07 1803.19 2718.43 1800.6 2721.03 1798.23 2721.39 1795.1 2722.04 1792 2722.98 1788.98Z" fill-rule="evenodd"/><path d="M2855.63 1538.41C2855.44 1535.26 2855.56 1532.11 2855.98 1528.99 2851.97 1533.07 2848.64 1537.81 2846.12 1543.02 2844.87 1545.59 2843.82 1548.25 2842.98 1550.99 2846.39 1546.01 2850.69 1541.74 2855.63 1538.41Z" fill-rule="evenodd"/><path d="M2822.13 1727.98C2821.7 1731.38 2820.98 1734.73 2819.98 1737.98 2821.66 1735.49 2823.16 1732.86 2824.47 1730.12 2825.88 1727.19 2827.06 1724.13 2827.98 1720.99 2826.22 1723.49 2824.26 1725.83 2822.13 1727.98Z" fill-rule="evenodd"/><path d="M2789.12 1792.57C2788.7 1795.77 2787.98 1798.92 2786.98 1801.99 2788.67 1799.64 2790.18 1797.17 2791.48 1794.59 2792.88 1791.82 2794.05 1788.94 2794.98 1785.99 2793.22 1788.35 2791.26 1790.55 2789.12 1792.57Z" fill-rule="evenodd"/><path d="M2806.1 1760.49C2805.68 1763.72 2804.97 1766.89 2803.98 1769.99 2805.67 1767.66 2807.19 1765.21 2808.52 1762.66 2809.91 1759.87 2811.07 1756.97 2811.98 1753.99 2810.2 1756.32 2808.24 1758.49 2806.1 1760.49Z" fill-rule="evenodd"/><path d="M2838.12 1695.66C2837.7 1698.83 2836.98 1701.95 2835.98 1704.99 2837.66 1702.67 2839.16 1700.22 2840.46 1697.67 2841.88 1694.88 2843.06 1691.98 2843.98 1688.99 2842.23 1691.38 2840.27 1693.62 2838.12 1695.66Z" fill-rule="evenodd"/><path d="M2731.79 1613.85C2748.55 1608.35 2768.01 1621.8 2775.22 1643.91 2776.23 1647.1 2776.96 1650.38 2777.39 1653.71 2781.11 1656.62 2784.36 1660.08 2787.03 1663.99 2788.03 1659.65 2789.55 1655.46 2791.55 1651.49 2792.31 1650.01 2793.13 1648.6 2793.98 1647.14 2791.51 1643.73 2788.59 1640.67 2785.29 1638.06 2784.87 1634.74 2784.14 1631.47 2783.12 1628.28 2775.87 1606.18 2756.41 1592.7 2739.69 1598.22 2730.14 1601.35 2723.54 1609.98 2720.98 1620.89 2723.92 1617.65 2727.64 1615.22 2731.79 1613.85Z" fill-rule="evenodd"/><path d="M2808.61 1631.39C2808.43 1628.25 2808.55 1625.1 2808.98 1621.99 2804.97 1626.07 2801.63 1630.82 2799.11 1636.03 2797.86 1638.59 2796.82 1641.25 2795.98 1643.99 2799.4 1639.01 2803.68 1634.74 2808.61 1631.39Z" fill-rule="evenodd"/><path d="M2832.58 1585.39C2832.38 1582.25 2832.52 1579.1 2832.98 1575.99 2828.65 1580.06 2825.06 1584.8 2822.35 1590.01 2821.01 1592.58 2819.88 1595.25 2818.98 1597.99 2822.65 1593 2827.26 1588.73 2832.58 1585.39Z" fill-rule="evenodd"/><path d="M2773.12 1824.61C2772.7 1827.79 2771.98 1830.93 2770.98 1833.99 2774.5 1829.12 2777.21 1823.72 2778.98 1817.99 2777.22 1820.36 2775.27 1822.58 2773.12 1824.61Z" fill-rule="evenodd"/><path d="M2980.4 1407.26C2988.02 1402.27 2994.16 1395.34 2998.19 1387.19 3008.8 1366.3 3004.41 1342.8 2988.4 1334.72 2972.38 1326.65 2950.78 1337.05 2940.17 1357.96 2935.97 1366.04 2934.01 1375.1 2934.51 1384.19 2919.14 1394.49 2910.25 1412 2911.03 1430.43 2903.41 1435.42 2897.27 1442.35 2893.24 1450.5 2891.94 1453.06 2890.85 1455.72 2889.98 1458.45 2895.62 1450.31 2903.8 1444.25 2913.26 1441.22 2917.75 1455.07 2932.67 1462.67 2946.57 1458.2 2946.66 1458.17 2946.76 1458.14 2946.85 1458.11 2950.04 1467.47 2950.04 1477.62 2946.85 1486.99 2948.54 1484.67 2950.04 1482.22 2951.35 1479.66 2955.54 1471.6 2957.49 1462.57 2957.01 1453.5 2972.39 1443.22 2981.29 1425.69 2980.48 1407.26Z" fill="#3F3D56" fill-rule="evenodd"/><path d="M3238.2 1109.37C3244.71 1106.33 3251.01 1102.83 3257.05 1098.92L3187.16 1047.78 3269.31 1090.15C3302.89 1063.43 3324.01 1024.03 3327.68 981.232L3188.06 982.661 3327.98 959.237C3322.12 873.351 3247.84 808.486 3162.07 814.355 3076.31 820.224 3011.53 894.606 3017.4 980.491 3017.82 986.639 3018.6 992.756 3019.74 998.811 3009.59 1003.54 2999.98 1009.34 2991.07 1016.13L3064.04 1117.73 2976.44 1028.79C2938.88 1065.73 2922.48 1119.15 2932.83 1170.83 2854.94 1207.24 2821.26 1300 2857.62 1378 2893.98 1456.01 2986.61 1489.73 3064.5 1453.32 3129.54 1422.92 3165.39 1351.93 3151.29 1281.46 3216.47 1251.08 3252.39 1179.95 3238.2 1109.37Z" fill="#3B3838" fill-rule="evenodd"/><path d="M2946.78 1069.8C2930.93 1100.99 2926.08 1136.62 2933.02 1170.9 2854.96 1207.3 2821.22 1300.04 2857.65 1378.02 2894.09 1456.01 2986.9 1489.73 3064.96 1453.32 3130.13 1422.93 3166.05 1351.96 3151.93 1281.5 3182.54 1267.3 2954.62 1054.2 2946.78 1069.8Z" fill="#000000" fill-rule="evenodd" fill-opacity="0.101961"/><path d="M3145 821C3145 833.703 3134.7 844 3122 844 3109.3 844 3099 833.703 3099 821 3099 808.297 3109.3 798 3122 798 3134.7 798 3145 808.297 3145 821Z" fill="#3B3838" fill-rule="evenodd"/><path d="M3280 836C3280 848.703 3269.7 859 3257 859 3244.3 859 3234 848.703 3234 836 3234 823.297 3244.3 813 3257 813 3269.7 813 3280 823.297 3280 836Z" fill="#3B3838" fill-rule="evenodd"/><path d="M3332 1044C3332 1056.7 3321.7 1067 3309 1067 3296.3 1067 3286 1056.7 3286 1044 3286 1031.3 3296.3 1021 3309 1021 3321.7 1021 3332 1031.3 3332 1044Z" fill="#3B3838" fill-rule="evenodd"/><path d="M3262 1148C3262 1160.7 3251.7 1171 3239 1171 3226.3 1171 3216 1160.7 3216 1148 3216 1135.3 3226.3 1125 3239 1125 3251.7 1125 3262 1135.3 3262 1148Z" fill="#3B3838" fill-rule="evenodd"/><path d="M3166 1363C3166 1375.7 3155.7 1386 3143 1386 3130.3 1386 3120 1375.7 3120 1363 3120 1350.3 3130.3 1340 3143 1340 3155.7 1340 3166 1350.3 3166 1363Z" fill="#3B3838" fill-rule="evenodd"/><path d="M3166 1363C3166 1375.7 3155.7 1386 3143 1386 3130.3 1386 3120 1375.7 3120 1363 3120 1350.3 3130.3 1340 3143 1340 3155.7 1340 3166 1350.3 3166 1363Z" fill="#000000" fill-rule="evenodd" fill-opacity="0.101961"/><path d="M2953 1119C2953 1131.7 2942.48 1142 2929.5 1142 2916.52 1142 2906 1131.7 2906 1119 2906 1106.3 2916.52 1096 2929.5 1096 2942.48 1096 2953 1106.3 2953 1119Z" fill="#3B3838" fill-rule="evenodd"/><path d="M2953 1119C2953 1131.7 2942.48 1142 2929.5 1142 2916.52 1142 2906 1131.7 2906 1119 2906 1106.3 2916.52 1096 2929.5 1096 2942.48 1096 2953 1106.3 2953 1119Z" fill="#000000" fill-rule="evenodd" fill-opacity="0.101961"/><path d="M2905.17 1499.06C2889.81 1491.29 2885.16 1469.29 2894.13 1448.99 2893.65 1449.81 2893.2 1450.65 2892.77 1451.54 2882.16 1472.53 2886.54 1496.12 2902.56 1504.24 2918.57 1512.35 2940.16 1501.9 2950.75 1480.91 2951.2 1480.04 2951.59 1479.15 2951.98 1478.29 2940.98 1497.57 2920.51 1506.85 2905.17 1499.06Z" fill="#000000" fill-rule="evenodd" fill-opacity="0.101961"/><path d="M2882.17 1544.09C2866.83 1536.32 2862.16 1514.31 2871.15 1493.99 2870.67 1494.83 2870.2 1495.67 2869.77 1496.54 2859.16 1517.53 2863.54 1541.15 2879.55 1549.24 2895.56 1557.34 2917.14 1546.93 2927.75 1525.91 2928.18 1525.04 2928.59 1524.18 2928.98 1523.29 2917.96 1542.58 2897.52 1551.86 2882.17 1544.09Z" fill="#000000" fill-rule="evenodd" fill-opacity="0.101961"/><path d="M2859.16 1590.06C2843.82 1582.29 2839.15 1560.29 2848.14 1539.99 2847.67 1540.81 2847.19 1541.65 2846.76 1542.54 2836.15 1563.53 2840.56 1587.12 2856.57 1595.24 2872.58 1603.35 2894.14 1592.9 2904.75 1571.91 2905.18 1571.04 2905.59 1570.15 2905.98 1569.29 2894.98 1588.57 2874.52 1597.85 2859.16 1590.06Z" fill="#000000" fill-rule="evenodd" fill-opacity="0.101961"/><path d="M2836.18 1635.06C2820.81 1627.29 2816.17 1605.29 2825.13 1584.99 2824.66 1585.81 2824.2 1586.65 2823.75 1587.52 2813.16 1608.51 2817.55 1632.12 2833.56 1640.24 2849.57 1648.35 2871.16 1637.9 2881.75 1616.88 2882.2 1616.02 2882.59 1615.15 2882.98 1614.27 2871.91 1633.44 2851.45 1642.72 2836.18 1635.06Z" fill="#000000" fill-rule="evenodd" fill-opacity="0.101961"/><path d="M2813.16 1680.06C2797.81 1672.29 2793.16 1650.29 2802.13 1629.99 2801.65 1630.81 2801.2 1631.65 2800.77 1632.54 2790.16 1653.53 2794.54 1677.12 2810.55 1685.24 2826.56 1693.35 2848.14 1682.9 2858.75 1661.91 2859.18 1661.04 2859.59 1660.15 2859.98 1659.29 2849 1678.57 2828.5 1687.85 2813.16 1680.06Z" fill="#000000" fill-rule="evenodd" fill-opacity="0.101961"/><path d="M2790.41 1725.07C2774.86 1717.3 2770.13 1695.29 2779.24 1674.99 2778.76 1675.81 2778.28 1676.65 2777.84 1677.52 2767.09 1698.51 2771.54 1722.12 2787.79 1730.24 2804.03 1738.35 2825.78 1727.88 2836.73 1706.89 2837.17 1706.02 2837.58 1705.15 2837.98 1704.27 2826.7 1723.55 2806.07 1732.83 2790.41 1725.07Z" fill="#000000" fill-rule="evenodd" fill-opacity="0.101961"/><path d="M2768.15 1770.06C2752.81 1762.29 2748.14 1740.29 2757.13 1719.99 2756.66 1720.83 2756.2 1721.65 2755.75 1722.54 2745.16 1743.53 2749.55 1767.12 2765.56 1775.24 2781.57 1783.35 2803.16 1772.9 2813.75 1751.91 2814.2 1751.04 2814.59 1750.15 2814.98 1749.29 2803.98 1768.57 2783.52 1777.85 2768.15 1770.06Z" fill="#000000" fill-rule="evenodd" fill-opacity="0.101961"/><path d="M2745.17 1815.06C2729.81 1807.29 2725.16 1785.29 2734.13 1764.99 2733.65 1765.81 2733.2 1766.65 2732.77 1767.52 2722.16 1788.51 2726.54 1812.12 2742.56 1820.24 2758.57 1828.35 2780.16 1817.9 2790.77 1796.88 2791.2 1796.02 2791.59 1795.15 2791.98 1794.27 2780.98 1813.55 2760.51 1822.75 2745.17 1815.06Z" fill="#000000" fill-rule="evenodd" fill-opacity="0.101961"/><path d="M2730.16 1845.09C2714.83 1837.3 2710.16 1815.31 2719.15 1794.99 2718.67 1795.83 2718.2 1796.67 2717.76 1797.54 2707.16 1818.53 2711.54 1842.15 2727.55 1850.24 2743.56 1858.34 2765.14 1847.93 2775.75 1826.91 2776.18 1826.04 2776.59 1825.18 2776.98 1824.29 2765.96 1843.58 2745.5 1852.86 2730.16 1845.09Z" fill="#000000" fill-rule="evenodd" fill-opacity="0.101961"/><path d="M3142.15 1644.06C3144.53 1637.2 3145.98 1630.06 3146.47 1622.81 3152.84 1622.8 3157.99 1617.59 3157.98 1611.19 3157.96 1604.79 3152.79 1599.61 3146.42 1599.63 3145.85 1599.63 3145.28 1599.67 3144.72 1599.76 3139.52 1575.97 3123.94 1555.79 3102.29 1544.82 3105.17 1539.1 3102.89 1532.12 3097.2 1529.23 3091.51 1526.35 3084.56 1528.64 3081.69 1534.36 3081.19 1535.33 3080.84 1536.38 3080.65 1537.46 3054.94 1532.65 3028.49 1540.61 3009.65 1558.84 3002.63 1557.7 2995.5 1557.49 2988.43 1558.21L2979.08 1601 2978.52 1559.75C2934.91 1569.36 2907.31 1612.67 2916.87 1656.49 2926.43 1700.3 2969.53 1728.04 3013.13 1718.44 3016.04 1717.8 3018.91 1716.99 3021.72 1716.04 3022.84 1718.06 3024.53 1719.69 3026.58 1720.73 3032.26 1723.63 3039.21 1721.35 3042.09 1715.64 3043.64 1712.57 3043.76 1708.96 3042.39 1705.79 3046.08 1703.25 3049.55 1700.4 3052.76 1697.28 3087.36 1702.94 3121.64 1685.56 3137.68 1654.24L3094.15 1646.88Z" fill="#3B3838" fill-rule="evenodd"/><path d="M3075.65 1664.77C3059.51 1643.45 3049.63 1618.19 3038.24 1593.96 3033.67 1584.02 3028.55 1574.33 3022.91 1564.95L3014.36 1554.99C3012.93 1556.2 3011.5 1557.46 3010.02 1558.79 3002.98 1557.65 2995.82 1557.43 2988.73 1558.16L2979.34 1600.95 2978.77 1559.7C2934.99 1569.31 2907.28 1612.63 2916.88 1656.46 2926.47 1700.3 2969.74 1728.04 3013.53 1718.43 3016.44 1717.79 3019.32 1716.99 3022.15 1716.04 3023.27 1718.06 3024.97 1719.69 3027.03 1720.73 3032.73 1723.63 3039.7 1721.35 3042.6 1715.64 3044.16 1712.56 3044.27 1708.95 3042.9 1705.79 3046.6 1703.24 3050.08 1700.4 3053.31 1697.28 3069.89 1699.96 3086.89 1697.44 3101.98 1690.07 3091.91 1683.1 3083.02 1674.56 3075.65 1664.77Z" fill-rule="evenodd"/><path d="M2790.73 1573.78C2793.61 1568.1 2791.33 1561.16 2785.63 1558.28 2784 1557.46 2782.2 1557.03 2780.38 1557.04 2777.09 1539.68 2768.19 1523.87 2755.03 1512.04 2757.15 1503.79 2757.96 1495.26 2757.42 1486.76L2714.85 1479.53 2756.18 1476.93C2755.44 1473.06 2754.42 1469.25 2753.13 1465.53 2754.74 1464.42 2756.05 1462.94 2756.94 1461.21 2759.82 1455.51 2757.52 1448.56 2751.8 1445.69 2748.96 1444.26 2745.66 1444.06 2742.66 1445.13 2716.81 1408.69 2666.22 1400.05 2629.68 1425.84 2602.24 1445.21 2589.63 1479.46 2597.99 1511.93 2595.48 1512.99 2593.44 1514.9 2592.23 1517.33 2589.34 1523.02 2591.62 1529.96 2597.32 1532.84 2600.29 1534.34 2603.76 1534.49 2606.85 1533.25 2611 1540.21 2616.18 1546.51 2622.21 1551.94 2617.82 1569 2619.14 1587.03 2625.98 1603.27L2683.05 1588.49 2632.15 1615.19C2655.99 1652.98 2706.04 1664.33 2743.92 1640.55 2765.12 1627.25 2778.96 1604.92 2781.42 1580.07 2785.4 1579.72 2788.93 1577.34 2790.73 1573.78Z" fill="#3B3838" fill-rule="evenodd"/><path d="M2790.73 1573.78C2793.61 1568.1 2791.33 1561.16 2785.64 1558.29 2784.02 1557.46 2782.22 1557.04 2780.4 1557.04 2777.12 1539.68 2768.23 1523.88 2755.1 1512.05 2755.45 1510.69 2755.75 1509.35 2756.01 1507.99 2754.5 1509.08 2753.1 1510.32 2751.83 1511.68 2744.16 1520.08 2740.22 1531.38 2732.63 1539.87 2723.68 1549.89 2710.28 1555.12 2696.89 1556.53 2683.51 1557.93 2670.04 1555.88 2656.83 1553.31 2645.89 1551.15 2634.79 1548.64 2623.7 1549.7 2622.62 1549.7 2621.54 1549.94 2620.55 1550.11 2621.19 1550.74 2621.84 1551.36 2622.51 1551.97 2618.13 1569.03 2619.45 1587.05 2626.28 1603.29L2683.25 1588.5 2632.44 1615.2C2656.24 1652.98 2706.19 1664.33 2744.01 1640.56 2765.17 1627.25 2778.98 1604.93 2781.44 1580.07 2785.42 1579.73 2788.93 1577.35 2790.73 1573.78Z" fill="#000000" fill-rule="evenodd" fill-opacity="0.101961"/><path d="M1314.34 1704.49C1317.1 1696.07 1328.29 1692.19 1339.33 1695.83 1340.92 1696.35 1342.46 1697.02 1343.92 1697.82 1344.64 1697.63 1345.37 1697.45 1346.08 1697.32 1345.47 1694.91 1345.24 1692.41 1345.39 1689.92 1337.69 1684.69 1333.22 1675.83 1333.6 1666.5 1329.77 1663.98 1326.69 1660.47 1324.67 1656.35 1322.56 1652.27 1321.58 1647.7 1321.8 1643.11 1317.98 1640.57 1314.9 1637.06 1312.88 1632.94 1307.58 1622.37 1309.73 1610.49 1317.82 1606.38 1325.9 1602.27 1336.72 1607.57 1342.05 1618.13 1344.15 1622.22 1345.13 1626.8 1344.89 1631.4 1352.62 1636.6 1357.09 1645.47 1356.69 1654.8 1364.41 1660.01 1368.88 1668.88 1368.48 1678.21 1376.21 1683.41 1380.67 1692.28 1380.27 1701.61 1384.1 1704.14 1387.19 1707.65 1389.22 1711.78 1390.19 1713.78 1390.91 1715.89 1391.37 1718.06 1392.7 1716.1 1394.32 1714.35 1396.18 1712.89 1396.4 1711.22 1396.78 1709.57 1397.3 1707.97 1400.95 1696.89 1410.67 1690.14 1419.06 1692.82 1427.44 1695.51 1431.28 1706.83 1427.68 1717.91 1426.19 1722.66 1423.33 1726.87 1419.47 1730.01 1419.24 1731.67 1418.87 1733.3 1418.34 1734.9 1416.57 1740.77 1412.63 1745.74 1407.33 1748.79 1407.74 1750.21 1408.05 1751.66 1408.23 1753.12 1410.46 1755.26 1412.3 1757.78 1413.69 1760.54 1415.1 1763.31 1416.02 1766.29 1416.4 1769.37 1418.64 1771.52 1420.49 1774.03 1421.88 1776.8 1423.29 1779.56 1424.21 1782.55 1424.6 1785.63 1426.84 1787.77 1428.69 1790.29 1430.07 1793.07 1435.4 1803.63 1433.2 1815.54 1425.16 1819.61 1417.12 1823.68 1406.25 1818.44 1400.92 1807.85 1399.52 1805.09 1398.6 1802.1 1398.21 1799.02 1393.72 1794.7 1390.83 1788.97 1390.02 1782.77 1385.52 1778.44 1382.64 1772.71 1381.82 1766.52 1379.59 1764.37 1377.74 1761.86 1376.35 1759.09 1374.95 1756.32 1374.04 1753.34 1373.63 1750.26 1371.41 1748.12 1369.56 1745.61 1368.18 1742.84 1366.77 1740.08 1365.85 1737.09 1365.46 1734.01 1364.07 1732.71 1362.84 1731.26 1361.77 1729.68 1357.34 1730.59 1352.74 1730.31 1348.45 1728.86 1346.86 1728.32 1345.31 1727.65 1343.84 1726.84 1339.04 1728.12 1333.98 1727.94 1329.29 1726.33 1318.35 1722.67 1311.61 1712.91 1314.34 1704.49Z" fill="#3F3D56" fill-rule="evenodd"/><path d="M1333.98 1671.99C1335.13 1673.1 1336.4 1674.09 1337.76 1674.95 1337.58 1678.01 1337.99 1681.08 1338.98 1683.99 1338.1 1682.82 1337.33 1681.59 1336.67 1680.3 1335.31 1677.69 1334.4 1674.88 1333.98 1671.99Z" fill-rule="evenodd"/><path d="M1321.98 1647.99C1323.14 1649.09 1324.4 1650.07 1325.76 1650.93 1325.58 1654 1325.99 1657.07 1326.98 1659.99 1324.34 1656.44 1322.63 1652.32 1321.98 1647.99Z" fill-rule="evenodd"/><path d="M1349.13 1639.69C1349.22 1638.12 1349.17 1636.54 1348.98 1634.99 1350.83 1637.03 1352.37 1639.4 1353.54 1642 1354.11 1643.29 1354.59 1644.62 1354.98 1645.99 1353.4 1643.49 1351.42 1641.36 1349.13 1639.69Z" fill-rule="evenodd"/><path d="M1423.98 1780.99C1423.07 1779.66 1422.04 1778.43 1420.9 1777.31 1420.71 1775.84 1420.4 1774.4 1419.98 1772.99 1420.88 1774.26 1421.68 1775.6 1422.37 1777.01 1423.01 1778.29 1423.54 1779.62 1423.98 1780.99Z" fill-rule="evenodd"/><path d="M1415.97 1764.99C1414.82 1763.66 1413.52 1762.43 1412.08 1761.31 1411.86 1759.85 1411.49 1758.4 1410.97 1756.99L1410.97 1756.99C1413.14 1759.4 1414.81 1762.09 1415.92 1764.94Z" fill-rule="evenodd"/><path d="M1345.58 1695.29C1346.71 1696.39 1347.95 1697.37 1349.29 1698.21 1349.13 1700.67 1349.36 1703.13 1349.98 1705.51 1349.26 1705.64 1348.54 1705.81 1347.84 1706.01 1346.37 1705.22 1344.83 1704.56 1343.25 1704.04 1332.28 1700.45 1321.15 1704.28 1318.43 1712.58 1317.75 1714.65 1317.62 1716.86 1318.07 1718.99 1314.48 1715.23 1313.13 1709.87 1314.51 1704.87 1317.25 1696.57 1328.38 1692.75 1339.35 1696.33 1340.93 1696.85 1342.45 1697.51 1343.91 1698.3 1344.62 1698.11 1345.35 1697.93 1346.06 1697.81 1345.85 1696.98 1345.69 1696.14 1345.58 1695.29Z" fill-rule="evenodd"/><path d="M1427.98 1788.99C1428.89 1790.24 1429.69 1791.58 1430.37 1792.98 1431.01 1794.27 1431.55 1795.61 1431.98 1796.99 1431.07 1795.67 1430.04 1794.45 1428.9 1793.34 1428.71 1791.86 1428.4 1790.41 1427.98 1788.99Z" fill-rule="evenodd"/><path d="M1360.15 1662.7C1360.26 1661.13 1360.2 1659.55 1359.98 1657.99 1362.14 1660.03 1363.94 1662.41 1365.3 1665.01 1365.97 1666.29 1366.53 1667.62 1366.98 1668.99 1365.14 1666.49 1362.82 1664.36 1360.15 1662.7Z" fill-rule="evenodd"/><path d="M1377.94 1758.32C1378.14 1759.9 1378.48 1761.47 1378.98 1762.99 1377.21 1760.56 1375.85 1757.86 1374.98 1754.99 1375.86 1756.18 1376.85 1757.3 1377.94 1758.32Z" fill-rule="evenodd"/><path d="M1393.91 1791.27C1394.13 1792.87 1394.49 1794.45 1394.98 1795.99 1394.12 1794.82 1393.37 1793.57 1392.72 1792.28 1392.02 1790.9 1391.44 1789.46 1390.98 1787.99 1391.87 1789.16 1392.85 1790.25 1393.91 1791.27Z" fill-rule="evenodd"/><path d="M1385.94 1774.27C1386.14 1775.87 1386.48 1777.45 1386.98 1778.99 1386.13 1777.81 1385.38 1776.57 1384.72 1775.28 1384.02 1773.9 1383.44 1772.46 1382.98 1770.99 1383.87 1772.17 1384.86 1773.26 1385.94 1774.27Z" fill-rule="evenodd"/><path d="M1369.91 1742.25C1370.11 1743.86 1370.47 1745.44 1370.98 1746.99 1370.15 1745.81 1369.42 1744.57 1368.79 1743.28 1368.06 1741.9 1367.45 1740.47 1366.98 1738.99 1367.85 1740.16 1368.83 1741.25 1369.91 1742.25Z" fill-rule="evenodd"/><path d="M1423.52 1701.25C1415.03 1698.53 1405.18 1705.16 1401.52 1716.11 1400.99 1717.68 1400.61 1719.3 1400.38 1720.93 1398.49 1722.36 1396.84 1724.07 1395.49 1725.99 1394.99 1723.85 1394.22 1721.78 1393.2 1719.83 1392.83 1719.11 1392.41 1718.41 1391.98 1717.71 1393.22 1716.03 1394.69 1714.53 1396.34 1713.25 1396.57 1711.61 1396.95 1710 1397.48 1708.43 1401.17 1697.55 1411.01 1690.93 1419.5 1693.56 1424.46 1695.41 1428.05 1699.65 1428.98 1704.73 1427.49 1703.14 1425.62 1701.94 1423.52 1701.25Z" fill-rule="evenodd"/><path d="M1384.15 1709.69C1384.26 1708.12 1384.2 1706.54 1383.98 1704.99 1386.14 1707.03 1387.94 1709.4 1389.3 1712 1389.97 1713.29 1390.53 1714.62 1390.98 1715.99 1389.14 1713.49 1386.83 1711.35 1384.15 1709.69Z" fill-rule="evenodd"/><path d="M1372.15 1686.69C1372.26 1685.12 1372.2 1683.54 1371.98 1681.99 1374.13 1684.04 1375.93 1686.4 1377.3 1689 1377.97 1690.29 1378.53 1691.62 1378.98 1692.99 1377.14 1690.49 1374.82 1688.36 1372.15 1686.69Z" fill-rule="evenodd"/><path d="M1401.91 1807.26C1402.12 1808.86 1402.47 1810.45 1402.98 1811.99 1402.13 1810.81 1401.37 1809.56 1400.72 1808.26 1400.02 1806.89 1399.44 1805.46 1398.98 1803.99 1399.87 1805.15 1400.85 1806.25 1401.91 1807.26Z" fill-rule="evenodd"/><path d="M1297.96 1596.8C1294.09 1594.29 1290.97 1590.81 1288.92 1586.72 1283.53 1576.22 1285.75 1564.42 1293.9 1560.36 1302.04 1556.3 1313.04 1561.52 1318.44 1572.03 1320.57 1576.08 1321.56 1580.62 1321.32 1585.17 1329.14 1590.35 1333.66 1599.15 1333.26 1608.42 1337.13 1610.93 1340.26 1614.4 1342.32 1618.49 1342.97 1619.78 1343.53 1621.12 1343.98 1622.49 1341.09 1618.43 1336.92 1615.41 1332.12 1613.89 1329.9 1620.87 1322.36 1624.75 1315.27 1622.56 1315.19 1622.54 1315.11 1622.51 1315.03 1622.49 1313.41 1627.19 1313.41 1632.28 1315.03 1636.99 1314.21 1635.82 1313.48 1634.59 1312.85 1633.31 1310.71 1629.26 1309.71 1624.72 1309.94 1620.17 1302.13 1614.98 1297.61 1606.19 1298 1596.92Z" fill="#3F3D56" fill-rule="evenodd"/><path d="M1168.11 1446.55C1164.84 1445.02 1161.67 1443.26 1158.64 1441.3L1193.78 1415.57 1152.46 1436.87C1135.58 1423.42 1124.97 1403.61 1123.13 1382.09L1193.37 1382.82 1122.98 1371.02C1125.42 1327.76 1162.41 1294.67 1205.6 1297.11 1248.8 1299.55 1281.84 1336.6 1279.4 1379.86 1279.19 1383.57 1278.72 1387.26 1277.99 1390.91 1283.09 1393.27 1287.92 1396.17 1292.41 1399.55L1255.71 1450.66 1299.77 1405.95C1318.66 1424.53 1326.9 1451.4 1321.7 1477.4 1360.92 1495.69 1377.9 1542.36 1359.63 1581.64 1341.37 1620.92 1294.77 1637.93 1255.55 1619.63 1222.76 1604.34 1204.69 1568.55 1211.83 1533.04 1179.09 1517.76 1161.03 1482.04 1168.11 1446.57Z" fill="#3B3838" fill-rule="evenodd"/><path d="M1314.69 1426.4C1322.67 1442.1 1325.11 1460.04 1321.61 1477.3 1360.91 1495.6 1377.92 1542.31 1359.62 1581.61 1341.32 1620.91 1294.63 1637.93 1255.33 1619.63 1222.48 1604.32 1204.38 1568.51 1211.53 1532.98 1196.11 1525.82 1310.73 1418.54 1314.69 1426.4Z" fill="#000000" fill-rule="evenodd" fill-opacity="0.101961"/><path d="M1238 1301.5C1238 1307.85 1232.85 1313 1226.5 1313 1220.15 1313 1215 1307.85 1215 1301.5 1215 1295.15 1220.15 1290 1226.5 1290 1232.85 1290 1238 1295.15 1238 1301.5Z" fill="#3B3838" fill-rule="evenodd"/><path d="M1170 1309C1170 1315.63 1164.85 1321 1158.5 1321 1152.15 1321 1147 1315.63 1147 1309 1147 1302.37 1152.15 1297 1158.5 1297 1164.85 1297 1170 1302.37 1170 1309Z" fill="#3B3838" fill-rule="evenodd"/><path d="M1144 1413.5C1144 1419.85 1138.85 1425 1132.5 1425 1126.15 1425 1121 1419.85 1121 1413.5 1121 1407.15 1126.15 1402 1132.5 1402 1138.85 1402 1144 1407.15 1144 1413.5Z" fill="#3B3838" fill-rule="evenodd"/><path d="M1179 1466C1179 1472.63 1173.85 1478 1167.5 1478 1161.15 1478 1156 1472.63 1156 1466 1156 1459.37 1161.15 1454 1167.5 1454 1173.85 1454 1179 1459.37 1179 1466Z" fill="#3B3838" fill-rule="evenodd"/><path d="M1228 1574.5C1228 1580.85 1222.63 1586 1216 1586 1209.37 1586 1204 1580.85 1204 1574.5 1204 1568.15 1209.37 1563 1216 1563 1222.63 1563 1228 1568.15 1228 1574.5Z" fill="#3B3838" fill-rule="evenodd"/><path d="M1228 1574.5C1228 1580.85 1222.63 1586 1216 1586 1209.37 1586 1204 1580.85 1204 1574.5 1204 1568.15 1209.37 1563 1216 1563 1222.63 1563 1228 1568.15 1228 1574.5Z" fill="#000000" fill-rule="evenodd" fill-opacity="0.101961"/><path d="M1335 1451.5C1335 1457.85 1329.85 1463 1323.5 1463 1317.15 1463 1312 1457.85 1312 1451.5 1312 1445.15 1317.15 1440 1323.5 1440 1329.85 1440 1335 1445.15 1335 1451.5Z" fill="#3B3838" fill-rule="evenodd"/><path d="M1335 1451.5C1335 1457.85 1329.85 1463 1323.5 1463 1317.15 1463 1312 1457.85 1312 1451.5 1312 1445.15 1317.15 1440 1323.5 1440 1329.85 1440 1335 1445.15 1335 1451.5Z" fill="#000000" fill-rule="evenodd" fill-opacity="0.101961"/><path d="M1335.75 1643.03C1343.55 1639.14 1345.9 1628.15 1341.35 1617.99 1341.59 1618.42 1341.83 1618.82 1342.04 1619.25 1347.42 1629.76 1345.2 1641.55 1337.06 1645.61 1328.92 1649.67 1317.99 1644.45 1312.61 1633.95 1312.39 1633.52 1312.17 1633.09 1311.98 1632.64 1317.57 1642.28 1327.96 1646.92 1335.75 1643.03Z" fill="#000000" fill-rule="evenodd" fill-opacity="0.101961"/><path d="M1347.73 1666.03C1355.52 1662.14 1357.9 1651.12 1353.35 1640.99 1353.59 1641.39 1353.83 1641.82 1354.04 1642.25 1359.42 1652.76 1357.2 1664.55 1349.06 1668.61 1340.92 1672.67 1329.99 1667.45 1324.61 1656.95 1324.37 1656.52 1324.17 1656.06 1323.98 1655.64 1329.57 1665.32 1339.98 1669.92 1347.73 1666.03Z" fill="#000000" fill-rule="evenodd" fill-opacity="0.101961"/><path d="M1358.73 1688.9C1366.53 1684.88 1368.9 1673.5 1364.33 1662.99 1364.59 1663.43 1364.81 1663.85 1365.05 1664.32 1370.43 1675.17 1368.19 1687.39 1360.06 1691.57 1351.94 1695.75 1340.99 1690.37 1335.61 1679.5 1335.37 1679.06 1335.17 1678.61 1334.98 1678.14 1340.55 1688.12 1350.94 1692.93 1358.73 1688.9Z" fill="#000000" fill-rule="evenodd" fill-opacity="0.101961"/><path d="M1370.74 1711.03C1378.54 1707.14 1380.91 1696.15 1376.34 1685.99 1376.58 1686.39 1376.82 1686.82 1377.03 1687.25 1382.43 1697.76 1380.19 1709.55 1372.07 1713.61 1363.94 1717.67 1352.97 1712.45 1347.59 1701.95 1347.37 1701.52 1347.17 1701.06 1346.98 1700.64 1352.55 1710.26 1362.94 1714.92 1370.74 1711.03Z" fill="#000000" fill-rule="evenodd" fill-opacity="0.101961"/><path d="M1381.75 1734.01C1389.55 1730.12 1391.9 1719.13 1387.35 1708.99 1387.59 1709.39 1387.83 1709.82 1388.04 1710.25 1393.42 1720.76 1391.2 1732.55 1383.08 1736.61 1374.96 1740.67 1363.99 1735.43 1358.61 1724.95 1358.39 1724.5 1358.2 1724.07 1357.98 1723.64 1363.57 1733.26 1373.96 1737.9 1381.75 1734.01Z" fill="#000000" fill-rule="evenodd" fill-opacity="0.101961"/><path d="M1393.75 1757.03C1401.55 1753.14 1403.9 1742.15 1399.35 1731.99 1399.59 1732.42 1399.83 1732.82 1400.04 1733.25 1405.42 1743.76 1403.2 1755.55 1395.08 1759.61 1386.96 1763.67 1375.99 1758.45 1370.61 1747.95 1370.39 1747.52 1370.17 1747.09 1369.98 1746.64 1375.57 1756.19 1385.96 1760.92 1393.75 1757.03Z" fill="#000000" fill-rule="evenodd" fill-opacity="0.101961"/><path d="M1404.75 1779.9C1412.52 1775.87 1414.9 1764.47 1410.35 1753.99 1410.59 1754.41 1410.83 1754.85 1411.04 1755.3 1416.42 1766.16 1414.2 1778.36 1406.06 1782.56 1397.92 1786.76 1386.99 1781.34 1381.61 1770.5 1381.39 1770.03 1381.17 1769.59 1380.98 1769.14 1386.57 1779.1 1396.96 1783.92 1404.75 1779.9Z" fill="#000000" fill-rule="evenodd" fill-opacity="0.101961"/><path d="M1416.73 1802.04C1424.53 1798.15 1426.9 1787.15 1422.33 1776.99 1422.59 1777.42 1422.81 1777.82 1423.05 1778.28 1428.43 1788.76 1426.19 1800.58 1418.06 1804.62 1409.94 1808.66 1398.99 1803.46 1393.61 1792.95 1393.37 1792.52 1393.17 1792.09 1392.98 1791.64 1398.57 1801.29 1408.94 1805.93 1416.73 1802.04Z" fill="#000000" fill-rule="evenodd" fill-opacity="0.101961"/><path d="M1424.03 1817.04C1431.59 1813.15 1433.87 1802.15 1429.46 1791.99 1429.69 1792.42 1429.92 1792.82 1430.13 1793.28 1435.35 1803.76 1433.19 1815.58 1425.32 1819.62 1417.45 1823.66 1406.81 1818.46 1401.59 1807.95 1401.38 1807.52 1401.17 1807.09 1400.98 1806.64 1406.34 1816.33 1416.41 1820.93 1424.03 1817.04Z" fill="#000000" fill-rule="evenodd" fill-opacity="0.101961"/><path d="M1215.94 1715.95C1214.73 1712.53 1214.01 1708.96 1213.77 1705.35 1210.56 1705.33 1207.97 1702.73 1207.98 1699.54 1207.99 1696.34 1210.6 1693.76 1213.81 1693.77 1214.1 1693.77 1214.38 1693.79 1214.66 1693.83 1217.29 1681.96 1225.14 1671.88 1236.04 1666.4 1234.59 1663.54 1235.74 1660.05 1238.61 1658.61 1241.49 1657.17 1244.99 1658.31 1246.44 1661.17 1246.69 1661.66 1246.87 1662.18 1246.96 1662.72 1259.94 1660.35 1273.27 1664.35 1282.76 1673.48 1286.34 1672.9 1289.97 1672.79 1293.57 1673.18L1298.29 1694.52 1298.39 1673.93C1320.32 1678.98 1333.99 1700.76 1328.92 1722.58 1323.85 1744.41 1301.97 1758.01 1280.04 1752.97 1278.88 1752.7 1277.73 1752.38 1276.6 1752.02 1276.03 1753.02 1275.18 1753.83 1274.16 1754.36 1271.28 1755.81 1267.77 1754.66 1266.32 1751.79 1265.54 1750.26 1265.48 1748.47 1266.16 1746.9 1264.3 1745.61 1262.56 1744.17 1260.95 1742.59 1243.5 1745.4 1226.22 1736.72 1218.14 1721.07L1240.08 1717.4Z" fill="#3B3838" fill-rule="evenodd"/><path d="M1250.25 1726.14C1258.31 1715.31 1263.26 1702.75 1268.94 1690.58 1271.21 1685.58 1273.77 1680.7 1276.6 1675.99L1280.9 1670.99C1281.63 1671.61 1282.34 1672.24 1283.05 1672.89 1286.6 1672.31 1290.22 1672.2 1293.8 1672.59L1298.49 1694.07 1298.56 1673.41C1320.37 1678.49 1333.97 1700.41 1328.93 1722.38 1323.88 1744.34 1302.11 1758.03 1280.29 1752.95 1279.14 1752.68 1278 1752.37 1276.88 1752 1276.31 1753 1275.47 1753.82 1274.45 1754.36 1271.58 1755.81 1268.09 1754.65 1266.65 1751.77 1265.87 1750.23 1265.82 1748.43 1266.49 1746.84 1264.64 1745.55 1262.91 1744.1 1261.3 1742.51 1253.02 1743.85 1244.53 1742.59 1236.98 1738.9 1242.05 1735.39 1246.54 1731.08 1250.25 1726.14Z" fill-rule="evenodd"/><path d="M1393.61 1679.99C1392.16 1677.14 1393.3 1673.65 1396.15 1672.2 1396.16 1672.2 1396.17 1672.19 1396.18 1672.19 1396.99 1671.77 1397.9 1671.55 1398.81 1671.56 1400.46 1662.81 1404.93 1654.84 1411.54 1648.87 1410.47 1644.71 1410.07 1640.42 1410.35 1636.14L1431.72 1632.55 1410.96 1631.23C1411.33 1629.28 1411.85 1627.36 1412.51 1625.48 1411.7 1624.94 1411.04 1624.2 1410.59 1623.32 1409.15 1620.44 1410.32 1616.93 1413.2 1615.5 1414.62 1614.79 1416.27 1614.69 1417.76 1615.22 1421.58 1609.79 1426.68 1605.38 1432.61 1602.4 1452.66 1592.23 1477.16 1600.23 1487.33 1620.29 1491.81 1629.12 1492.92 1639.28 1490.45 1648.87 1493.4 1650.13 1494.77 1653.55 1493.51 1656.5 1492.97 1657.75 1492.01 1658.78 1490.8 1659.39 1489.31 1660.15 1487.56 1660.23 1486 1659.61 1483.92 1663.1 1481.32 1666.27 1478.29 1668.99 1480.5 1677.61 1479.84 1686.71 1476.41 1694.92L1447.82 1687.4 1473.38 1700.86C1461.43 1719.94 1436.28 1725.71 1417.21 1713.76 1410.9 1709.8 1405.79 1704.19 1402.44 1697.54 1400.18 1693.04 1398.76 1688.17 1398.25 1683.16 1396.26 1682.98 1394.5 1681.78 1393.61 1679.99Z" fill="#3B3838" fill-rule="evenodd"/><path d="M1393.61 1680.07C1392.16 1677.22 1393.3 1673.74 1396.16 1672.3 1396.17 1672.29 1396.18 1672.29 1396.19 1672.28 1397.01 1671.87 1397.92 1671.65 1398.84 1671.66 1400.49 1662.92 1404.98 1654.97 1411.61 1649.01 1411.44 1648.34 1411.29 1647.65 1411.16 1646.99 1411.94 1647.54 1412.66 1648.16 1413.33 1648.84 1417.21 1653.15 1419.21 1658.74 1423.02 1663.01 1427.81 1667.92 1434.24 1670.9 1441.09 1671.4 1447.88 1671.86 1454.71 1671.32 1461.33 1669.78 1466.8 1668.38 1472.44 1667.77 1478.08 1667.95L1479.69 1668.16 1478.69 1669.09C1480.91 1677.69 1480.25 1686.78 1476.8 1694.97L1448.04 1687.47 1473.7 1700.9C1461.7 1719.94 1436.45 1725.7 1417.31 1713.77 1410.97 1709.82 1405.84 1704.22 1402.48 1697.58 1400.21 1693.1 1398.79 1688.24 1398.27 1683.24 1396.27 1683.06 1394.5 1681.86 1393.61 1680.07Z" fill="#000000" fill-rule="evenodd" fill-opacity="0.101961"/><path d="M1869.98 710.963C1861.44 709.348 1852.61 710.307 1844.62 713.716 1834.93 718.018 1823.87 718.018 1814.17 713.716 1802.71 708.711 1789.62 708.971 1778.37 714.426 1775.19 716.097 1771.66 716.975 1768.07 716.986 1753.56 716.986 1741.48 702.422 1738.98 683.211 1741.87 681.098 1744.33 678.455 1746.23 675.424 1754.74 661.763 1767.83 652.986 1782.71 652.986 1797.59 652.986 1810.55 661.591 1819.06 675.166 1824.22 683.456 1833.36 688.462 1843.16 688.374L1843.54 688.374C1854.99 688.31 1864.99 697.539 1869.98 710.963Z" fill="#3B3838" fill-rule="evenodd" fill-opacity="0.101961"/><path d="M1913.74 650.964 1890.21 665.943 1904.49 639.855C1900.44 636.618 1895.43 634.828 1890.25 634.769L1889.88 634.769C1888.25 634.789 1886.62 634.665 1885.01 634.399L1877.01 639.486 1880.44 633.247C1874.8 631.28 1869.92 627.593 1866.48 622.703L1852.16 631.682 1861.17 615.225C1852.83 605.16 1841.57 598.986 1829.19 598.986 1814.35 598.986 1801.03 607.856 1792.58 621.66 1787.43 630.053 1778.19 635.032 1768.38 634.703L1767.66 634.703C1751.28 634.703 1737.98 653.334 1737.98 676.356 1737.98 699.377 1751.28 717.986 1767.66 717.986 1771.26 717.975 1774.81 717.087 1778 715.399 1789.29 709.881 1802.42 709.627 1813.92 714.704 1823.64 719.037 1834.74 719.037 1844.47 714.704 1855.87 709.736 1868.87 709.99 1880.07 715.399 1883.23 717.042 1886.73 717.907 1890.29 717.921 1906.7 717.921 1919.98 699.29 1919.98 676.29 1920.03 667.458 1917.89 658.752 1913.74 650.964Z" fill="#3B3838" fill-rule="evenodd" fill-opacity="0.101961"/><path d="M1380.98 1011.46C1368.79 1009.14 1356.2 1010.52 1344.79 1015.4 1330.95 1021.55 1315.15 1021.51 1301.33 1015.29 1284.97 1008.09 1266.29 1008.47 1250.23 1016.31 1245.7 1018.7 1240.65 1019.97 1235.52 1019.99 1214.8 1019.99 1197.56 999.053 1193.98 971.432 1198.12 968.406 1201.63 964.605 1204.34 960.24 1216.48 940.606 1235.3 927.986 1256.43 927.986 1277.55 927.986 1296.13 940.455 1308.21 959.872 1315.6 971.843 1328.71 979.049 1342.74 978.856L1343.28 978.856C1359.64 978.835 1373.92 992.104 1380.98 1011.46Z" fill="#3B3838" fill-rule="evenodd" fill-opacity="0.101961"/><path d="M1444.22 924.751 1410.59 946.005 1431 909.004C1425.22 904.401 1418.06 901.854 1410.66 901.768L1410.12 901.768C1407.78 901.802 1405.45 901.629 1403.14 901.25L1391.79 908.572 1396.68 899.716C1388.6 896.901 1381.63 891.608 1376.75 884.596L1356.34 897.556 1369.19 874.012C1357.25 859.734 1341.17 850.986 1323.49 850.986 1302.28 850.986 1283.39 863.557 1271.19 883.149 1263.84 895.117 1250.6 902.22 1236.53 901.746L1235.38 901.746C1211.96 901.746 1192.98 928.206 1192.98 960.866 1192.98 993.525 1211.96 1019.99 1235.38 1019.99 1240.53 1019.97 1245.6 1018.7 1250.16 1016.29 1266.28 1008.48 1285.04 1008.11 1301.46 1015.3 1315.33 1021.51 1331.2 1021.55 1345.1 1015.41 1361.39 1008.36 1379.96 1008.71 1395.97 1016.38 1400.48 1018.73 1405.48 1019.97 1410.57 1019.99 1433.99 1019.99 1452.97 993.504 1452.97 960.866 1453.14 948.287 1450.13 935.868 1444.22 924.751Z" fill="#3B3838" fill-rule="evenodd" fill-opacity="0.101961"/><path d="M2737.98 795.878C2746.52 794.243 2755.34 795.215 2763.33 798.67 2773.01 803.034 2784.08 803.034 2793.76 798.67 2805.22 793.596 2818.31 793.859 2829.57 799.39 2832.74 801.082 2836.28 801.972 2839.87 801.986 2854.38 801.986 2866.47 787.219 2868.98 767.741 2866.08 765.604 2863.62 762.923 2861.72 759.845 2853.26 745.95 2840.02 736.986 2825.18 736.986 2810.35 736.986 2797.37 745.711 2788.86 759.474 2783.7 767.918 2774.54 773.023 2764.71 772.932L2764.35 772.932C2752.86 772.91 2742.84 782.268 2737.98 795.878Z" fill="#3B3838" fill-rule="evenodd" fill-opacity="0.101961"/><path d="M2694.09 735.42 2717.62 750.229 2703.32 724.361C2707.37 721.154 2712.38 719.379 2717.56 719.317L2717.95 719.317C2719.58 719.336 2721.21 719.213 2722.82 718.951L2730.79 723.995 2727.37 717.808C2733.05 715.89 2737.97 712.248 2741.45 707.396L2755.73 716.407 2746.7 700.089C2755.06 690.108 2766.2 683.986 2778.7 683.986 2793.54 683.986 2806.86 692.781 2815.31 706.469 2820.46 714.796 2829.7 719.734 2839.52 719.403L2840.3 719.403C2856.7 719.403 2869.98 737.877 2869.98 760.705 2869.98 783.534 2856.7 801.986 2840.3 801.986 2836.69 801.97 2833.15 801.09 2829.96 799.421 2818.67 793.95 2805.53 793.697 2794.04 798.731 2784.32 803.027 2773.23 803.027 2763.51 798.731 2752.1 793.805 2739.1 794.056 2727.89 799.421 2724.73 801.052 2721.23 801.91 2717.67 801.921 2701.29 801.921 2687.98 783.447 2687.98 760.641 2687.87 751.858 2689.97 743.186 2694.09 735.42Z" fill="#3B3838" fill-rule="evenodd" fill-opacity="0.101961"/><path d="M2322 2031 1937 2026.04 1938.15 2016.15 1956.75 1853 2294.86 1853 2319.73 2016.15 2321.63 2028.53 2322 2031Z" fill="#D0D2D5" fill-rule="evenodd"/><path d="M2322 2028 2129.69 2028 1937 2025.59 1938.15 2016 2320.1 2016 2322 2028Z" fill="#000000" fill-rule="evenodd" fill-opacity="0.101961"/><path d="M1872 2018 2384 2018 2384 2031 1872 2031Z" fill="#D0D2D5" fill-rule="evenodd"/><path d="M2870.98 873.256C2871.04 855.51 2856.72 841.069 2838.97 840.986L1410.98 840.986C1393.22 841.069 1378.9 855.536 1378.98 873.298 1378.98 873.299 1378.98 873.299 1378.98 873.299L1378.98 1738.99 2870.98 1738.99Z" fill="#3F3D56" fill-rule="evenodd"/><path d="M1378.98 1729.99 1378.98 1831.83C1378.98 1849.59 1393.31 1863.99 1410.98 1863.99L2838.97 1863.99C2856.65 1863.99 2870.98 1849.59 2870.98 1831.83L2870.98 1729.99Z" fill="#D0D2D5" fill-rule="evenodd"/><path d="M1441 895 2817 895 2817 1674 1441 1674Z" fill="#FFFFFF" fill-rule="evenodd"/><path d="M2166 1864 2320 2018 2296.37 1864 2166 1864Z" fill="#000000" fill-rule="evenodd" fill-opacity="0.101961"/><path d="M1440 896 2818 896 2818 941 1440 941Z" fill="#444053" fill-rule="evenodd" fill-opacity="0.101961"/><path d="M2331.75 903C2332.44 903 2333 903 2333 903L2333 931C2333 931 2332.44 931 2331.75 931L1919.25 931C1918.56 931 1918 931 1918 931L1918 903C1918 903 1918.56 903 1919.25 903Z" fill="#3B3838" fill-rule="evenodd" fill-opacity="0.301961"/><path d="M2320.65 919.769 2319.64 919.769 2319.27 919.445C2320.52 917.937 2321.21 916.036 2321.2 914.074 2321.17 909.572 2317.51 905.95 2313.03 905.986 2308.55 906.022 2304.94 909.701 2304.98 914.204 2305.01 918.69 2308.65 922.304 2313.11 922.292 2315.07 922.285 2316.96 921.591 2318.46 920.329L2318.82 920.653 2318.82 921.667 2325.11 927.986 2326.98 926.088ZM2313.11 919.769C2309.98 919.78 2307.44 917.241 2307.42 914.096 2307.41 910.951 2309.94 908.392 2313.07 908.38 2316.2 908.368 2318.75 910.908 2318.76 914.053 2318.76 914.06 2318.76 914.067 2318.76 914.074 2318.78 917.195 2316.28 919.745 2313.18 919.768 2313.16 919.769 2313.13 919.769 2313.11 919.769Z" fill="#3F3D56" fill-rule="evenodd"/><path d="M1473 918.5C1473 923.195 1469.42 927 1465 927 1460.58 927 1457 923.195 1457 918.5 1457 913.806 1460.58 910 1465 910 1469.42 910 1473 913.806 1473 918.5Z" fill="#FA5959" fill-rule="evenodd" fill-opacity="0.8"/><path d="M1496 918.5C1496 923.195 1492.19 927 1487.5 927 1482.81 927 1479 923.195 1479 918.5 1479 913.806 1482.81 910 1487.5 910 1492.19 910 1496 913.806 1496 918.5Z" fill="#FED253" fill-rule="evenodd" fill-opacity="0.8"/><path d="M1519 918.5C1519 923.195 1515.19 927 1510.5 927 1505.81 927 1502 923.195 1502 918.5 1502 913.806 1505.81 910 1510.5 910 1515.19 910 1519 913.806 1519 918.5Z" fill="#8CCF4D" fill-rule="evenodd" fill-opacity="0.8"/><path d="M2201.98 1229.12C2183.14 1203.9 2155.85 1187.99 2125.48 1187.99 2095.1 1187.99 2067.81 1203.9 2048.98 1229.12 2053.14 1239.41 2059.3 1248.76 2067.1 1256.62 2099.36 1289.12 2151.65 1289.11 2183.89 1256.6 2191.68 1248.74 2197.83 1239.4 2201.98 1229.12Z" fill="#3B3838" fill-rule="evenodd"/><path d="M2039.01 1243.94C2037.67 1243.36 2036.39 1242.64 2035.21 1241.78 2033.42 1240.31 2031.99 1238.45 2031.02 1236.34 2034.77 1228.62 2031.57 1219.32 2023.87 1215.56 2016.18 1211.8 2006.9 1215.01 2003.16 1222.73 2000.36 1228.5 2001.38 1235.4 2005.73 1240.11 2006.81 1241.26 2008.05 1242.26 2009.4 1243.08 2011.16 1244.1 2012.59 1245.6 2013.52 1247.41 2015.29 1250.98 2017.72 1254.19 2020.69 1256.85 2023.73 1259.47 2027.02 1261.79 2030.5 1263.78 2025.71 1277.41 2022.98 1291.69 2022.43 1306.13 2016.85 1306.23 2011.32 1307.12 2005.99 1308.8 2003.26 1309.65 2000.69 1310.93 1998.37 1312.61 1997.75 1312.53 1997.12 1312.49 1996.49 1312.48 1987.93 1312.48 1980.98 1319.45 1980.98 1328.05 1980.98 1336.64 1987.92 1343.61 1996.49 1343.61 2002.96 1343.61 2008.74 1339.59 2011.02 1333.52 2012.27 1330.03 2015.36 1327.52 2019.02 1327.03 2020.35 1326.87 2021.68 1326.78 2023.02 1326.77 2024.87 1347.14 2031.17 1366.86 2041.47 1384.52 2032.32 1391.64 2026.69 1399.42 2024.31 1408.03 2023.87 1408.28 2023.46 1408.58 2023.08 1408.92 2022.43 1409.43 2021.82 1410 2021.27 1410.61 2015.51 1416.96 2015.98 1426.8 2022.31 1432.57 2028.64 1438.35 2038.44 1437.88 2044.2 1431.53 2048.08 1427.24 2049.27 1421.14 2047.27 1415.7 2045.83 1411.86 2046.83 1407.52 2049.8 1404.7 2050.83 1403.73 2051.96 1402.69 2053.47 1401.54 2070.97 1422.04 2091.79 1435.19 2117.8 1436.75L2117.8 1297.62C2083.42 1295.74 2053.47 1273.28 2039.01 1243.94ZM2254.44 1312.63C2253.81 1312.64 2253.19 1312.68 2252.56 1312.76 2250.22 1311.12 2247.66 1309.84 2244.95 1308.95 2239.62 1307.27 2234.08 1306.37 2228.5 1306.28 2227.9 1291.85 2225.18 1277.59 2220.43 1263.95 2223.92 1261.96 2227.21 1259.64 2230.25 1257.02 2233.31 1254.21 2235.83 1250.86 2237.67 1247.13 2238.54 1245.51 2239.87 1244.18 2241.49 1243.34L2241.49 1243.34C2248.95 1239.13 2251.6 1229.65 2247.41 1222.16 2243.21 1214.68 2233.77 1212.02 2226.31 1216.23 2219.2 1220.24 2216.41 1229.09 2219.91 1236.47 2218.96 1238.59 2217.53 1240.45 2215.73 1241.91 2214.52 1242.91 2213.25 1243.84 2211.93 1244.7 2197.47 1274.02 2167.54 1295.85 2133.2 1297.73L2133.2 1436.99C2159.1 1435.43 2180.05 1422.22 2197.53 1401.78 2198.89 1402.86 2200.04 1403.83 2201.01 1404.74 2204.1 1407.62 2205.18 1412.09 2203.73 1416.07 2200.78 1424.13 2204.91 1433.06 2212.94 1436.02 2220.98 1438.97 2229.88 1434.83 2232.82 1426.77 2234.8 1421.36 2233.63 1415.3 2229.8 1411.02 2229.24 1410.41 2228.63 1409.84 2227.98 1409.33 2227.27 1408.77 2226.75 1408.45 2226.75 1408.45 2224.38 1399.78 2218.77 1392.05 2209.49 1384.93 2219.79 1367.27 2226.09 1347.55 2227.94 1327.18 2229.22 1327.19 2230.49 1327.28 2231.76 1327.44 2235.5 1327.92 2238.69 1330.41 2240.07 1333.94 2243.2 1341.93 2252.19 1345.87 2260.15 1342.73 2265.76 1340.52 2269.59 1335.25 2269.96 1329.21 2270.4 1320.51 2263.72 1313.09 2255.05 1312.65 2254.84 1312.64 2254.64 1312.63 2254.44 1312.63Z" fill="#3B3838" fill-rule="evenodd"/><path d="M1906.61 1430.79C1889.48 1447.88 1887.42 1455.42 1877.13 1458.82 1866.84 1462.21 1829.82 1481.37 1841.45 1502.6L1872.73 1523.25 1873.64 1523.86 1878.43 1538.23 1831.12 1622.39C1831.12 1622.39 1753.14 1586.76 1745.49 1639.47 1737.84 1692.18 1742.7 1706.57 1740.64 1734.71 1738.58 1762.85 1741.31 1770.99 1734.44 1770.99 1727.58 1770.99 1724.87 1752.5 1724.87 1752.5 1724.87 1752.5 1724.44 1751.66 1723.68 1750.08 1713.47 1728.89 1644.22 1573.32 1755.15 1466.39 1755.15 1466.39 1806.53 1463.02 1818.9 1404.14 1827.44 1363.45 1857.29 1366.95 1877.13 1375.24 1883.58 1377.77 1889.59 1381.3 1894.94 1385.7 1899.75 1390.25 1904.03 1395.33 1907.7 1400.85 1913.35 1409.77 1916.43 1420.96 1906.61 1430.79Z" fill="#D0D2D5" fill-rule="evenodd"/><path d="M1873.21 1523.48 1877.98 1537.88 1830.83 1622.16C1830.83 1622.16 1753.12 1586.48 1745.5 1639.27 1737.88 1692.06 1742.72 1706.47 1740.67 1734.65 1738.62 1762.83 1741.34 1770.99 1734.49 1770.99 1727.65 1770.99 1724.95 1752.47 1724.95 1752.47 1724.95 1752.47 1724.52 1751.63 1723.76 1750.04 1720.33 1723.68 1702.93 1569.49 1766.01 1577.68 1766.01 1577.68 1817.19 1601.7 1825.37 1592.12 1831.85 1584.53 1860.6 1540.89 1872.3 1522.99Z" fill="#000000" fill-rule="evenodd" fill-opacity="0.101961"/><path d="M1907.98 1400.65 1876.48 1436.27C1876.48 1436.27 1839.9 1484.98 1832.3 1482.92 1830.03 1482.43 1827.72 1482.16 1825.39 1482.12 1817.99 1481.55 1812.45 1475.13 1813.02 1467.76 1813.25 1464.7 1814.54 1461.81 1816.66 1459.59 1829.14 1446.56 1852.13 1421.83 1853.64 1416.34 1855.14 1410.85 1869.78 1386.77 1877.11 1374.99 1883.61 1377.52 1889.66 1381.06 1895.04 1385.47 1899.92 1390.03 1904.26 1395.12 1907.98 1400.65Z" fill="#000000" fill-rule="evenodd" fill-opacity="0.101961"/><path d="M2791.12 1911.55C2785.83 1922.16 2758.69 1961.94 2746.82 1979.33L2741.27 1987.51C2741.27 1987.51 2739.1 2001.88 2703.67 1984.07 2668.23 1966.25 1835.62 1614.54 1835.62 1614.54L1829.98 1597.57 1871.06 1535.99 2783.62 1888.96C2783.62 1888.96 2797.98 1897.85 2791.12 1911.55Z" fill="#454B69" fill-rule="evenodd"/><path d="M2746.98 1979.34 2741.42 1987.51C2741.42 1987.51 2739.26 2001.87 2703.81 1984.08 2668.37 1966.28 1835.62 1614.94 1835.62 1614.94L1829.98 1597.99Z" fill="#000000" fill-rule="evenodd" fill-opacity="0.101961"/><path d="M2949 2017.5C2949 2024.96 2917.66 2031 2879 2031 2840.34 2031 2809 2024.96 2809 2017.5 2809 2010.04 2840.34 2004 2879 2004 2917.66 2004 2949 2010.04 2949 2017.5Z" fill="#3B3838" fill-rule="evenodd"/><path d="M2886 2011.5C2886 2017.3 2882.42 2022 2878 2022 2873.58 2022 2870 2017.3 2870 2011.5 2870 2005.7 2873.58 2001 2878 2001 2882.42 2001 2886 2005.7 2886 2011.5Z" fill="#3F3D56" fill-rule="evenodd"/><path d="M2886 1998.5C2886 2004.3 2882.42 2009 2878 2009 2873.58 2009 2870 2004.3 2870 1998.5 2870 1992.7 2873.58 1988 2878 1988 2882.42 1988 2886 1992.7 2886 1998.5Z" fill="#3F3D56" fill-rule="evenodd"/><path d="M2886 1985.5C2886 1991.3 2882.42 1996 2878 1996 2873.58 1996 2870 1991.3 2870 1985.5 2870 1979.7 2873.58 1975 2878 1975 2882.42 1975 2886 1979.7 2886 1985.5Z" fill="#3F3D56" fill-rule="evenodd"/><path d="M2886 1972.5C2886 1978.3 2882.42 1983 2878 1983 2873.58 1983 2870 1978.3 2870 1972.5 2870 1966.7 2873.58 1962 2878 1962 2882.42 1962 2886 1966.7 2886 1972.5Z" fill="#3F3D56" fill-rule="evenodd"/><path d="M2886 1959.5C2886 1965.3 2882.42 1970 2878 1970 2873.58 1970 2870 1965.3 2870 1959.5 2870 1953.7 2873.58 1949 2878 1949 2882.42 1949 2886 1953.7 2886 1959.5Z" fill="#3F3D56" fill-rule="evenodd"/><path d="M2886 1946.5C2886 1952.3 2882.42 1957 2878 1957 2873.58 1957 2870 1952.3 2870 1946.5 2870 1940.7 2873.58 1936 2878 1936 2882.42 1936 2886 1940.7 2886 1946.5Z" fill="#3F3D56" fill-rule="evenodd"/><path d="M2886 1933.5C2886 1939.3 2882.42 1944 2878 1944 2873.58 1944 2870 1939.3 2870 1933.5 2870 1927.7 2873.58 1923 2878 1923 2882.42 1923 2886 1927.7 2886 1933.5Z" fill="#3F3D56" fill-rule="evenodd"/><path d="M2908.58 1844.95C2909.69 1843.53 2910.71 1842.04 2911.61 1840.49L2890.22 1836.99 2913.37 1837.14C2917.83 1827.39 2918.1 1816.24 2914.1 1806.29L2883.05 1822.37 2911.68 1801.36C2900.86 1782.78 2877.01 1776.46 2858.4 1787.26 2839.78 1798.05 2833.46 1821.87 2844.27 1840.46 2845.18 1842.02 2846.2 1843.52 2847.32 1844.95 2845.58 1847.14 2844.09 1849.52 2842.86 1852.04L2870.64 1866.46 2841.02 1856.53C2836.82 1868.98 2839.19 1882.71 2847.32 1893.03 2834.02 1909.93 2836.97 1934.39 2853.9 1947.67 2870.82 1960.95 2895.33 1958.01 2908.63 1941.11 2919.73 1927 2919.73 1907.14 2908.63 1893.03 2919.76 1878.91 2919.76 1859 2908.63 1844.88Z" fill="#3B3838" fill-rule="evenodd"/><path d="M2838.98 1868.56C2838.97 1877.34 2841.93 1885.87 2847.38 1892.75 2834.08 1909.73 2837.03 1934.3 2853.95 1947.63 2870.87 1960.97 2895.36 1958.02 2908.66 1941.04 2919.75 1926.87 2919.75 1906.92 2908.66 1892.75 2913.83 1886.09 2838.98 1864.17 2838.98 1868.56Z" fill="#000000" fill-rule="evenodd" fill-opacity="0.101961"/></g></svg>