<svg width="448" height="512" xmlns="http://www.w3.org/2000/svg" xmlns:xlink="http://www.w3.org/1999/xlink" overflow="hidden"><defs><clipPath id="clip0"><rect x="416" y="104" width="448" height="512"/></clipPath></defs><g clip-path="url(#clip0)" transform="translate(-416 -104)"><path d="M855.55 340.05 660 144.45C648.728 133.188 630.462 133.188 619.19 144.45L578.53 185.08 630.05 236.6C657.11 227.46 682.73 253.37 673.44 280.28L723.1 329.94C757.33 318.14 784.28 360.94 758.57 386.63 732.08 413.12 688.36 383.76 702.57 349.29L656.22 303 656.22 424.85C681.52 437.39 678.48 466.7 665.3 479.85 651.891 493.251 630.159 493.251 616.75 479.85 599.18 462.25 605.68 432.94 628 423.85L628 300.85C607.2 292.34 603.4 270.11 609.36 255.85L558.57 205 424.45 339.14C413.182 350.41 413.182 368.68 424.45 379.95L620.06 575.55C631.329 586.811 649.591 586.811 660.86 575.55L855.55 380.86C866.818 369.59 866.818 351.32 855.55 340.05Z" fill="#E55B38"/></g></svg>