<svg width="640" height="512" xmlns="http://www.w3.org/2000/svg" xmlns:xlink="http://www.w3.org/1999/xlink" overflow="hidden"><defs><clipPath id="clip0"><rect x="320" y="104" width="640" height="512"/></clipPath></defs><g clip-path="url(#clip0)" transform="translate(-320 -104)"><path d="M720.1 298.8C709.2 301.6 700.2 303.1 691 306.4 683.7 308.3 676.3 310.3 667.8 312.5L667.2 312.6C663 313.8 662.6 313.9 658.7 309.4 654 304.1 650.6 300.7 644.1 297.5 624.4 287.9 605.4 290.7 587.7 302.2 566.5 315.9 555.6 336.2 555.9 361.4 556.2 386.4 573.3 406.9 597.1 410.3 619.1 413.1 636.9 405.7 650.9 389.8 653 387.2 654.9 384.5 657 381.5L657 381.5 657 381.5C657.8 380.5 658.5 379.4 659.3 378.2L599.2 378.2C592.7 378.2 591.1 374.2 593.3 368.9 597.3 359.2 604.8 343 609.2 334.9 610.1 333.1 612.3 329.1 616.1 329.1L717.2 329.1C721.7 315.7 729 302.2 738.8 289.4 761.5 259.5 788.1 243.9 826 237.4 857.8 231.8 887.7 234.9 914.9 253.3 939.5 270.1 954.7 292.9 958.8 322.8 964.1 364.9 951.9 399.1 922.1 428.4 902.4 449.3 877.2 462.4 848.2 468.3 842.6 469.3 837.1 469.8 831.7 470.3 828.8 470.5 826 470.8 823.2 471.1 794.9 470.5 769 462.4 747.2 443.7 731.9 430.4 721.3 414.1 716.1 395.2 712.4 402.5 708.1 409.6 702.1 416.3 680.5 445.9 651.2 464.3 614.2 469.2 583.6 473.3 555.3 467.4 530.3 448.7 507.3 431.2 494.2 408.2 490.8 379.5 486.7 345.5 496.7 314.1 517.2 288.2 539.4 259.2 568.7 240.8 604.5 234.3 633.8 228.1 661.8 232.4 687.1 249.6 703.6 260.5 715.4 275.4 723.2 293.5 725.1 296.3 723.8 297.9 720.1 298.8ZM368.3 304.4C367.05 304.4 366.74 303.8 367.36 302.8L373.91 294.4C374.53 293.5 376.09 292.9 377.34 292.9L488.6 292.9C489.8 292.9 490.1 293.8 489.5 294.7L484.2 302.8C483.6 303.8 482 304.7 481.1 304.7L368.3 304.4ZM321.246 333.1C320 333.1 319.688 332.4 320.312 331.5L326.855 323.1C327.479 322.2 329.037 321.5 330.28 321.5L472.4 321.5C473.6 321.5 474.2 322.5 473.9 323.4L471.4 330.9C471.1 332.1 469.9 332.8 468.6 332.8L321.246 333.1ZM395.72 359.9C395.1 360.8 395.41 361.7 396.65 361.7L464.6 362C465.5 362 466.8 361.1 466.8 359.9L467.4 352.4C467.4 351.1 466.8 350.2 465.5 350.2L403.2 350.2C401.95 350.2 400.71 351.1 400.08 352.1L395.72 359.9ZM897.2 341.9C897 339.3 896.9 337.1 896.5 334.9 890.9 304.1 862.5 286.6 832.9 293.5 803.9 300 785.2 318.4 778.4 347.7 772.8 372 784.6 396.6 807 406.6 824.2 414.1 841.3 413.2 857.8 404.7 882.4 391.1 895.8 372 897.4 345.2 897.3 344 897.3 342.9 897.2 341.9Z" fill="#86D5E2"/></g></svg>