<svg width="1201" height="1265" xmlns="http://www.w3.org/2000/svg" xmlns:xlink="http://www.w3.org/1999/xlink" xml:space="preserve" overflow="hidden"><g transform="translate(-1118 -325)"><g><path d="M1605.22 329.231C1651.79 337.378 1683.37 383.729 1675.61 432.608L1649.38 597.787 1903.9 597.787 1934.68 403.112C1942.44 354.232 1986.6 321.084 2033.17 329.231 2079.74 337.378 2111.32 383.729 2103.55 432.608L2077.59 597.787 2233.36 597.787C2280.73 597.787 2319 637.958 2319 687.68 2319 737.402 2280.73 777.573 2233.36 777.573L2048.96 777.573 1991.95 1137.15 2147.71 1137.15C2195.09 1137.15 2233.36 1177.32 2233.36 1227.04 2233.36 1276.76 2195.09 1316.93 2147.71 1316.93L1963.31 1316.93 1932.54 1511.61C1924.78 1560.49 1880.62 1593.63 1834.05 1585.49 1787.48 1577.34 1755.9 1530.99 1763.66 1482.11L1789.89 1317.21 1535.1 1317.21 1504.32 1511.89C1496.56 1560.77 1452.4 1593.92 1405.83 1585.77 1359.26 1577.62 1327.68 1531.27 1335.45 1482.39L1361.41 1316.93 1205.64 1316.93C1158.27 1316.93 1120 1276.76 1120 1227.04 1120 1177.32 1158.27 1137.15 1205.64 1137.15L1390.04 1137.15 1447.05 777.573 1291.29 777.573C1243.91 777.573 1205.64 737.402 1205.64 687.68 1205.64 637.958 1243.91 597.787 1291.29 597.787L1475.69 597.787 1506.46 403.112C1514.22 354.232 1558.38 321.084 1604.95 329.231ZM1620.74 777.573 1563.74 1137.15 1818.26 1137.15 1875.26 777.573 1620.74 777.573Z" fill="#4C4848" fill-rule="evenodd" fill-opacity="1"/></g></g></svg>