<svg width="967" height="1057" xmlns="http://www.w3.org/2000/svg" xmlns:xlink="http://www.w3.org/1999/xlink" overflow="hidden"><defs><clipPath id="clip0"><rect x="1314" y="500" width="967" height="1057"/></clipPath></defs><g clip-path="url(#clip0)" transform="translate(-1314 -500)"><path d="M1559.25 906.058C1604.79 839.795 1663.46 801.027 1690.29 819.468 1717.12 837.908 1701.96 906.573 1656.42 972.836 1610.89 1039.1 1552.22 1077.87 1525.38 1059.43 1498.55 1040.99 1513.71 972.321 1559.25 906.058Z" fill="#3B3838" fill-rule="evenodd"/><path d="M1578 719.5C1578 598.274 1676.27 500 1797.5 500 1918.73 500 2017 598.274 2017 719.5 2017 840.727 1918.73 939 1797.5 939 1676.27 939 1578 840.727 1578 719.5Z" fill="#3B3838" fill-rule="evenodd"/><path d="M1606 786.5C1606 680.738 1691.74 595 1797.5 595 1903.26 595 1989 680.738 1989 786.5 1989 892.263 1903.26 978 1797.5 978 1691.74 978 1606 892.263 1606 786.5Z" fill="#FFB8B8" fill-rule="evenodd"/><path d="M1660.16 1035 1934.43 1035 1986.01 1086.54 2050.33 1086.54C2090.06 1086.54 2125.09 1106.65 2145.77 1137.24L2154.7 1153.67 2281 1323.14 2274.12 1332.33C2160.78 1469.54 1989.26 1557 1797.29 1557 1605.33 1557 1433.81 1469.54 1320.47 1332.33L1314 1323.69 1438.06 1157.23 1438.2 1156.78C1455.67 1115.5 1496.58 1086.54 1544.26 1086.54L1608.57 1086.54Z" fill="#3B3838" fill-rule="evenodd"/></g></svg>