<svg width="5434" height="5434" xmlns="http://www.w3.org/2000/svg" xmlns:xlink="http://www.w3.org/1999/xlink" overflow="hidden"><defs><clipPath id="clip0"><rect x="-6314" y="-3422" width="5434" height="5434"/></clipPath></defs><g clip-path="url(#clip0)" transform="translate(6314 3422)"><path d="M365.338 670.878C351.35 669.18 334.396 664.513 327.19 660.694 320.409 656.875 310.236 653.905 305.573 653.905 300.487 653.905 295.401 650.934 293.705 647.54 292.434 644.145 286.499 641.175 280.989 641.175 275.055 641.175 268.697 638.629 267.002 635.234 265.307 632.264 258.948 627.172 253.862 624.626 220.801 607.229 164.004 546.55 164.004 528.728 164.004 525.758 160.613 519.817 156.798 515.574 150.44 509.209 148.745 498.601 147.897 452.774 146.625 407.371 145.354 396.338 139.844 392.095 134.757 388.276 115.684 386.579 80.5033 386.579L27.9447 386.579 13.5332 370.878C0.393704 356.451-1.30164 352.208-1.30164 330.143-1.30164 285.164-19.5279 288.984 195.793 288.984 376.358 288.984 385.259 288.559 400.094 280.497 408.995 275.829 418.744 272.011 422.135 272.011 430.188 272.011 464.945 243.156 464.945 236.367 464.945 232.973 467.912 228.305 471.303 225.335 475.117 222.364 477.661 213.029 477.661 201.996 477.661 190.964 475.117 181.629 471.303 178.659 467.912 175.688 464.945 171.445 464.945 168.899 464.945 162.958 428.069 130.285 412.386 122.223 405.181 118.828 386.955 112.039 371.695 107.372 347.111 99.7337 331.005 98.8852 223.344 98.4609L102.544 98.0366 88.9804 82.3364C76.6886 67.9094 74.9933 63.2417 74.9933 40.3281 74.9933-2.52903 66.5158-0.407315 236.908 1.29013 375.51 2.98722 383.564 3.41149 407.724 12.7469 421.711 18.2631 435.275 23.7794 437.394 25.9011 439.937 27.5982 446.295 30.5685 452.229 32.2659 494.191 45.4201 575.148 133.68 575.148 166.353 575.148 171.021 578.116 179.507 581.93 185.448 587.864 194.359 588.712 203.27 586.593 238.489L584.05 280.921 594.646 284.74C600.58 287.286 632.794 288.984 666.702 288.984 726.891 288.984 728.162 288.559 738.759 278.375 748.084 268.616 749.355 265.221 746.812 249.521 745.117 239.762 742.149 228.729 740.03 224.91 738.335 221.515 735.368 204.118 734.096 186.721 732.401 169.324 728.586 149.804 725.195 143.015 721.804 136.226 719.261 119.253 719.261 105.674 719.261 92.0961 716.294 73.8499 712.903 65.3634 704.002 44.1469 705.274 25.9011 716.718 11.4737 726.467 0.0169564 728.162-0.407315 754.865 1.29013 779.449 2.56294 784.536 4.68466 797.252 16.99 808.696 28.0225 812.51 35.6604 814.63 53.0577 816.325 64.9391 819.292 80.639 820.988 87.4284 826.498 106.099 846.419 233.397 846.419 249.521 846.419 257.583 850.658 267.767 857.44 275.829L868.46 288.984 922.714 288.984C987.565 288.984 999.009 286.013 999.009 268.191 999.009 261.402 997.313 254.189 994.771 252.916 992.227 251.643 990.532 237.64 990.532 221.94 990.532 203.694 987.989 188.843 983.75 180.78 979.935 173.991 975.697 153.623 974.425 136.226 973.578 118.828 969.763 99.3094 966.796 92.9446 963.405 86.1552 960.862 68.3337 960.862 50.0875 960.862 22.9309 962.133 17.8389 970.611 9.77664 985.022-3.80185 1026.98-3.37757 1043.09 10.2009 1060.47 25.0522 1071.07 48.8146 1071.07 72.1525 1071.07 83.6092 1074.03 99.7337 1077.42 107.796 1080.81 116.282 1083.78 132.831 1083.78 144.713 1083.78 156.594 1087.6 176.961 1092.26 190.115 1096.92 203.694 1100.74 223.637 1100.74 234.67 1100.74 245.702 1103.28 262.251 1106.67 270.737 1110.06 279.648 1113.88 299.168 1115.15 314.443 1116.84 329.719 1120.66 349.662 1124.05 358.997 1127.44 368.333 1129.98 384.882 1130.41 395.489 1130.41 417.13 1145.24 470.171 1154.14 480.355 1157.53 483.749 1160.08 488.841 1160.08 491.387 1160.08 497.752 1206.7 543.58 1213.06 543.58 1215.6 543.58 1221.54 547.398 1225.77 552.066 1230.01 556.734 1238.49 560.553 1244.85 560.553 1251.21 560.553 1262.23 563.523 1268.58 566.917 1284.27 574.98 1308.85 574.98 1319.45 566.917 1323.69 563.523 1332.16 560.553 1338.1 560.553 1350.39 560.553 1387.27 527.879 1400.83 504.966 1408.88 491.812 1410.15 483.325 1410.15 445.56 1409.73 417.554 1407.61 395.065 1403.37 384.457 1399.98 375.122 1396.17 353.481 1394.89 336.508 1393.62 319.535 1389.81 300.44 1386.42 294.076 1383.03 287.71 1380.48 271.162 1380.48 257.159 1380.48 243.156 1377.94 226.607 1374.55 220.243 1371.16 214.302 1367.34 194.359 1366.07 176.113 1364.8 157.866 1360.56 138.772 1357.6 134.104 1354.2 129.012 1350.81 110.766 1349.97 93.3689 1348.69 75.9716 1345.3 56.0283 1342.34 48.3904 1337.25 36.509 1337.25 33.9634 1343.61 26.7497 1347.42 22.5062 1350.81 15.7172 1350.81 11.8984 1350.81 2.56294 1366.5-1.25586 1395.74 1.29013 1423.72 3.83612 1442.37 18.6874 1446.61 42.4499 1447.88 50.9364 1451.69 65.7877 1455.08 75.9716 1458.47 85.7309 1461.02 102.28 1461.02 112.039 1461.02 121.799 1463.14 136.65 1465.68 144.713 1468.22 152.775 1472.89 175.688 1475.85 195.632 1478.82 215.575 1485.18 254.613 1490.26 282.619 1494.93 310.624 1500.86 347.965 1503.4 365.362 1511.46 418.403 1525.02 467.625 1536.04 485.447 1560.2 523.636 1598.77 552.066 1648.79 567.342 1672.1 574.98 1674.22 574.98 1693.72 567.766 1705.16 563.947 1717.03 560.553 1720.42 560.553 1723.81 560.553 1731.02 556.734 1736.53 552.066 1742.04 547.398 1747.97 543.58 1749.67 543.58 1751.36 543.58 1760.69 531.698 1770.01 517.271 1786.97 491.387 1787.39 489.69 1787.39 454.471 1787.39 434.528 1784.42 405.249 1781.03 388.7 1773.4 353.057 1757.72 259.281 1753.48 221.091 1751.36 205.816 1747.97 186.721 1745.43 178.659 1742.88 170.596 1740.77 156.169 1740.77 146.41 1740.77 136.65 1736.95 116.707 1732.29 102.28 1720.84 65.7877 1720.84 22.5062 1732.29 9.77664 1745-3.80185 1785.27-3.37757 1802.65 9.77664 1809.43 14.8686 1816.21 21.2334 1817.91 23.7794 1824.27 32.6902 1833.59 71.3039 1836.56 100.158 1837.83 116.707 1841.64 139.196 1845.03 150.653 1848.43 162.11 1850.97 180.78 1850.97 191.813 1850.97 202.421 1854.78 223.637 1859.45 238.064 1864.11 252.492 1867.92 267.343 1867.92 270.313 1867.92 283.892 1885.73 288.984 1935.74 288.984 1962.44 288.984 1988.72 287.71 1994.23 286.438 2006.1 283.043 2011.19 265.221 2003.13 253.34 1998.9 246.975 1996.78 225.759 1995.93 179.507 1994.66 120.526 1995.08 113.312 2003.13 97.6123 2008.22 88.2769 2012.04 76.3959 2012.04 70.8796 2012.04 65.3634 2015 58.574 2018.39 55.6037 2021.78 52.6335 2024.75 47.1172 2024.75 42.8741 2024.75 34.3876 2050.18 10.2009 2065.87 4.26039 2071.38 2.13867 2090.45 0.441228 2108.25 0.441228 2152.33 0.441228 2176.07 11.8984 2212.95 51.7849 2228.2 68.3337 2240.92 85.3067 2240.92 89.1255 2240.92 92.9446 2244.74 99.3094 2249.4 103.553 2254.06 107.372 2257.87 114.161 2257.87 118.828 2257.87 123.072 2260.84 129.012 2264.23 131.983 2267.62 134.953 2270.59 139.621 2270.59 142.167 2270.59 144.713 2274.41 154.048 2279.07 162.958 2283.73 171.445 2287.55 182.902 2287.55 187.994 2287.97 193.51 2290.51 202.421 2293.9 208.362 2297.29 214.302 2299.84 224.486 2300.26 231.275 2300.26 238.489 2304.08 263.948 2308.74 288.559 2326.96 389.125 2334.17 431.557 2334.17 439.619 2334.17 459.987 2362.99 529.577 2379.1 546.974 2385.46 554.188 2391.81 556.734 2399.87 555.461 2410.89 554.188 2412.16 552.066 2417.67 526.607 2421.06 510.482 2422.76 488.417 2421.49 473.566 2416.4 420.525 2411.31 384.033 2406.65 372.576 2399.02 352.633 2401.14 309.775 2410.04 298.743 2418.09 288.984 2419.37 288.984 2521.52 288.984 2639.35 288.984 2641.89 288.559 2638.08 260.978 2635.11 236.791 2627.06 189.267 2620.28 155.32 2617.31 139.196 2611.37 104.826 2607.14 79.3661 2600.35 35.2362 2600.35 33.1144 2607.56 19.9602 2611.8 12.7469 2617.31 5.53321 2619.85 3.83612 2622.39 2.13867 2678.34 0.441228 2744.04 0.441228L2863.15 0.441228 2876.29 11.4737C2883.49 17.4146 2889.43 25.0522 2889.43 28.0225 2889.43 30.9927 2892.39 35.6604 2895.78 38.6307 2904.69 46.2687 2903.84 76.8202 2894.09 88.2769 2886.04 97.6123 2883.49 98.0366 2811.86 98.0366 2749.98 98.0366 2736.41 99.3094 2730.9 104.826 2720.31 115.01 2720.31 154.896 2730.9 175.264 2734.29 181.629 2736.84 198.178 2736.84 211.756 2736.84 239.762 2752.52 281.77 2764.39 286.438 2776.68 291.105 3063.21 289.408 3072.11 284.316 3079.74 280.497 3080.16 277.103 3077.62 236.791 3075.93 213.029 3072.11 188.418 3069.14 182.053 3065.75 175.688 3063.21 158.715 3063.21 143.864 3063.21 127.315 3060.67 112.464 3056 104.401 3051.77 96.7634 3048.37 77.6687 3047.1 55.1794 3045.41 20.8091 3045.83 18.2631 3055.16 9.35237 3064.06 0.86586 3069.14 0.0169564 3091.18 1.29013 3135.69 3.83612 3148.41 20.3849 3158.58 89.1255 3177.23 216.848 3188.67 270.313 3199.27 280.921 3206.9 288.559 3215.38 288.984 3327.27 288.984 3442.14 288.984 3448.08 288.559 3455.28 280.497 3462.06 272.859 3462.49 269.04 3458.25 243.156 3447.65 180.78 3444.26 157.866 3438.75 121.374 3435.36 100.583 3430.27 73.0014 3427.73 60.6957 3421.8 34.8119 3423.91 23.3551 3436.21 9.77664 3448.5-3.37757 3489.19-3.80185 3505.72 9.35237 3523.1 22.9309 3533.69 47.5415 3533.69 74.6984 3533.69 88.2769 3536.66 103.977 3540.9 112.039 3544.72 119.253 3548.53 138.772 3549.8 155.32 3550.65 171.445 3554.46 190.115 3557.43 196.48 3560.82 202.845 3563.37 220.667 3563.37 235.943 3563.37 261.402 3564.64 265.221 3575.66 276.678L3587.95 288.984 3645.59 288.984C3697.73 288.984 3704.09 288.135 3711.72 280.497 3721.04 271.162 3722.74 255.038 3715.53 247.824 3712.99 245.278 3709.6 227.456 3707.9 207.937 3706.21 187.994 3702.39 168.05 3699.85 162.958 3696.88 157.866 3694.76 143.439 3694.76 131.134 3694.34 118.828 3690.95 98.0366 3686.28 85.3067 3681.62 72.5771 3678.23 54.7552 3677.81 45.8444 3677.81 26.3254 3689.25 5.10893 3701.54 2.13867 3706.21 0.86586 3771.9 0.441228 3847.78 1.29013 3974.51 2.98722 3987.23 3.41149 4010.54 11.8984 4024.53 16.99 4041.9 23.7794 4048.69 27.5982 4055.89 31.4174 4063.52 34.3876 4066.49 34.3876 4069.03 34.3876 4072 35.6604 4072.85 37.7822 4073.69 39.4796 4085.56 48.3904 4099.55 57.7254 4146.6 88.7012 4169.49 119.253 4186.44 174.84 4194.07 200.724 4195.34 212.18 4193.22 240.186 4191.95 258.856 4192.8 277.103 4194.92 280.497 4197.88 285.589 4210.6 287.286 4254.68 288.135 4302.58 289.408 4311.9 290.681 4319.11 297.894 4343.27 319.959 4349.63 348.813 4336.91 373.849L4330.13 386.579 4280.54 386.579C4248.32 387.003 4228.83 388.7 4224.16 392.095 4214.42 399.733 4211.45 410.765 4218.65 416.282 4222.04 419.252 4224.59 424.344 4224.59 427.738 4224.59 430.709 4227.98 438.347 4231.79 444.711 4237.73 453.198 4239 466.776 4239.85 508.36 4240.27 553.763 4239.42 561.826 4232.64 570.737 4227.98 576.253 4224.59 583.042 4224.59 585.588 4224.59 591.953 4179.23 636.507 4168.21 641.599 4163.13 643.721 4155.92 647.115 4152.53 649.237 4114.81 672.575 4116.08 672.15 3980.02 674.272 3909.24 675.121 3842.69 674.696 3832.09 672.999 3793.95 667.483 3779.11 640.75 3767.24 554.188 3765.12 538.063 3760.04 505.39 3756.22 482.052 3752.41 458.714 3748.59 433.255 3747.32 425.192 3746.05 417.13 3739.69 405.249 3732.49 398.46L3720.19 385.73 3662.55 387.427C3611.69 388.7 3604.48 389.549 3598.97 396.763 3591.34 407.795 3591.34 425.192 3599.39 435.801 3607.87 446.833 3607.87 508.785 3599.39 519.817 3596 524.485 3593.04 534.245 3593.04 541.882 3593.04 549.096 3590.07 557.582 3586.68 560.553 3583.29 563.523 3580.32 568.191 3580.32 571.161 3580.32 580.072 3545.99 621.656 3526.07 636.932 3515.89 644.994 3497.67 656.026 3485.37 661.967 3465.03 672.15 3459.52 672.575 3398.06 672.575 3343.81 672.575 3329.39 671.302 3315.41 664.937 3306.08 660.694 3289.98 653.056 3279.38 648.388 3268.78 643.721 3255.22 635.658 3248.86 630.991 3242.93 625.899 3231.48 617.413 3223.85 611.472 3206.47 598.318 3169.18 561.401 3160.7 547.823 3157.31 542.731 3151.37 534.245 3147.56 529.153 3133.15 510.058 3109.83 447.682 3109.83 428.587 3109.83 410.341 3105.17 401.006 3092.88 393.792 3082.28 387.427 3064.06 386.579 2941.14 386.579 2859.33 386.579 2796.6 388.276 2789.82 390.822 2777.1 395.489 2769.9 410.765 2775.41 421.374 2777.53 425.192 2780.5 440.468 2781.77 455.32 2783.46 470.171 2786.85 490.115 2790.24 500.298 2793.63 510.058 2796.18 525.333 2796.18 534.245 2796.18 542.731 2799.14 560.553 2802.54 573.283 2805.93 586.012 2810.17 608.926 2811.44 624.202 2813.98 650.085 2813.56 652.207 2802.54 662.391 2792.79 671.726 2787.28 672.999 2764.39 672.575 2734.29 672.15 2728.36 668.756 2713.1 644.569 2705.9 633.112 2702.93 622.505 2702.93 606.38 2702.93 593.65 2699.96 578.375 2696.15 571.161 2692.33 564.371 2688.09 544.004 2687.25 526.607 2685.97 509.209 2682.58 492.236 2680.04 488.841 2677.5 485.447 2674.11 466.776 2672.83 447.682 2670.72 415.857 2669.44 410.765 2658.42 399.309L2646.13 386.579 2592.3 386.579C2541.44 386.579 2537.2 387.003 2526.6 396.338L2515.16 406.522 2521.94 431.982C2529.99 459.987 2531.69 531.698 2524.91 556.31 2522.79 564.371 2518.55 581.769 2515.16 594.499 2507.53 624.626 2494.39 645.842 2474.89 661.118 2460.06 672.15 2456.67 672.999 2418.94 672.575 2385.88 672.575 2375.71 670.878 2361.72 663.24 2341.8 652.207 2314.67 628.021 2298.57 606.38 2281.19 583.466 2249.4 520.242 2249.4 508.785 2249.4 503.693 2246.43 495.206 2243.04 490.963 2239.65 486.295 2236.68 474.839 2236.68 465.504 2236.68 455.744 2232.87 439.619 2228.2 429.436 2222.69 417.979 2219.73 401.855 2219.73 384.882 2219.3 370.454 2216.76 354.33 2213.37 348.389 2209.98 342.449 2207.44 326.324 2207.01 311.897 2207.01 294.924 2204.04 278.8 2198.53 267.343 2193.87 256.735 2190.06 239.337 2190.06 227.032 2190.06 213.029 2187.94 203.27 2183.7 199.875 2180.31 196.905 2177.34 189.267 2177.34 182.477 2177.34 175.264 2173.53 166.778 2168.86 162.958 2164.2 158.715 2160.39 152.35 2160.39 148.531 2160.39 144.713 2156.57 138.347 2151.91 134.104 2147.25 129.861 2143.43 123.92 2143.43 120.526 2143.43 110.342 2127.33 114.585 2116.31 128.164 2105.71 140.469 2105.29 143.864 2105.29 188.418 2105.29 223.213 2107.4 244.005 2113.76 265.221 2118.42 282.194 2122.66 311.049 2123.09 332.689 2124.78 388.276 2128.17 386.579 2012.46 387.003 1962.02 387.003 1917.09 387.852 1912.43 388.7 1896.75 391.671 1894.63 401.006 1895.47 463.806 1896.32 513.877 1895.05 527.455 1889.12 541.458 1884.88 550.793 1880.22 562.674 1878.94 568.191 1877.25 573.283 1874.28 577.526 1872.16 577.526 1870.47 577.526 1867.92 581.769 1866.23 587.285 1861.57 605.956 1817.48 644.569 1781.03 662.391 1761.53 672.15 1755.18 672.575 1694.14 672.575 1634.38 672.575 1626.32 671.726 1610.22 663.24 1600.04 658.148 1589.45 653.905 1586.48 653.905 1578 653.905 1538.58 628.445 1519.51 610.623 1510.18 601.712 1499.16 594.499 1494.93 594.499 1491.11 594.499 1474.16 608.077 1457.2 624.202 1440.67 640.75 1424.14 653.905 1420.33 653.905 1416.51 653.905 1406.34 658.148 1397.86 663.24 1383.87 672.15 1377.52 672.999 1316.48 672.999 1256.29 672.999 1248.24 672.15 1227.47 662.815 1214.75 657.299 1201.61 651.359 1198.22 649.237 1194.83 647.115 1187.63 643.721 1182.12 641.175 1177.03 639.053 1170.25 635.234 1167.28 632.688 1164.74 630.142 1151.6 619.958 1138.46 610.199 1113.88 591.528 1099.04 576.677 1088.02 560.128 1084.63 555.036 1077.85 545.701 1073.18 539.761 1060.04 522.787 1049.87 502.844 1049.87 494.358 1049.87 490.539 1047.33 483.749 1043.94 480.355 1040.97 476.536 1037.16 464.23 1035.89 452.349 1033.34 429.436 1020.2 400.581 1008.76 392.095 997.738 383.608 904.912 384.882 888.805 392.943 877.785 398.884 876.089 401.855 876.089 417.554 876.513 427.314 879.056 440.044 882.447 445.985 885.838 451.925 888.382 466.352 888.805 478.233 888.805 490.115 892.62 512.18 897.283 526.607 901.945 541.034 905.76 563.099 905.76 575.404 905.76 587.71 908.727 603.41 912.118 609.775 920.595 625.899 920.171 642.023 911.27 657.299 902.793 671.726 883.295 677.242 854.896 672.575 832.008 668.756 808.272 643.296 808.272 622.505 808.272 614.867 805.305 602.561 801.914 596.196 798.523 589.407 795.556 572.858 795.556 559.704 795.556 546.126 793.013 527.879 789.622 519.393 786.231 510.482 782.416 490.539 781.145 474.839 778.602 440.893 768.005 401.855 758.68 392.519 752.746 387.003 728.586 386.154 550.141 387.427 319.137 389.549 316.593 389.549 279.718 423.071L259.372 441.741 259.372 471.444 259.372 501.147 280.565 522.363C292.434 533.82 304.726 543.58 308.54 543.58 312.355 543.58 318.713 547.398 322.952 552.066 327.19 556.734 336.091 560.553 342.449 560.553 348.807 560.553 359.404 562.674 366.185 565.22 385.683 572.858 389.921 572.858 511.145 573.283L627.707 573.707 643.39 590.256C656.53 603.834 659.497 610.199 660.345 628.445 661.616 645.842 660.345 652.207 652.715 661.542L643.814 672.999 517.079 673.424C447.567 673.848 379.325 672.575 365.338 670.878ZM3402.3 566.917C3408.23 563.523 3417.13 560.977 3422.64 560.553 3433.66 560.553 3482.83 513.452 3482.83 502.42 3482.83 498.177 3485.8 490.963 3489.19 486.72 3504.45 466.776 3489.19 394.641 3468.84 389.125 3463.76 387.852 3408.66 386.579 3346.35 386.579 3237.42 386.579 3232.33 387.003 3224.28 395.065 3216.65 402.703 3215.8 407.371 3218.34 430.284 3220.04 444.711 3223.85 459.563 3226.82 463.382 3230.21 466.776 3232.75 473.141 3232.75 476.96 3232.75 485.447 3289.55 543.58 3297.6 543.58 3301 543.58 3306.93 547.398 3311.17 552.066 3315.41 556.734 3323.88 560.553 3329.82 560.553 3335.75 560.977 3345.5 563.523 3351.43 566.917 3357.37 570.312 3368.81 572.858 3376.87 572.858 3384.92 572.858 3396.36 570.312 3402.3 566.917ZM4044.87 567.342C4056.31 563.947 4070.3 560.128 4076.24 558.855 4082.17 557.582 4095.73 548.672 4106.75 538.488 4130.07 516.847 4137.7 495.206 4131.34 471.02 4126.25 453.198 4098.7 422.646 4079.2 413.736 4071.57 410.341 4062.67 406.098 4059.28 403.976 4044.02 395.065 4005.88 389.973 3941.87 387.852 3855.83 384.882 3851.59 386.579 3851.59 424.344 3851.59 437.922 3854.56 457.441 3857.95 467.201 3861.34 476.96 3864.31 495.631 3864.31 508.36 3864.31 532.547 3871.51 554.188 3882.96 566.069 3889.31 572.434 3899.91 573.283 3957.56 573.283 4003.76 573.283 4030.88 571.161 4044.87 567.342ZM4006.3 280.497C4015.62 275.829 4026.22 272.435 4030.46 272.011 4034.27 272.011 4047.84 261.827 4060.98 249.521 4084.29 227.456 4084.71 226.607 4084.71 203.27 4084.71 183.326 4082.59 176.961 4073.27 165.08 4057.16 145.985 4046.57 136.65 4031.73 129.437 4024.95 126.042 4016.05 121.799 4012.66 119.677 3986.38 105.25 3952.89 99.7337 3888.89 98.4609 3852.44 98.0366 3818.53 98.4609 3813.87 100.158 3802.85 103.553 3799.46 120.526 3804.97 151.077 3807.08 165.08 3811.32 190.964 3813.87 208.362 3821.07 255.462 3824.89 269.04 3834.64 279.648 3843.11 288.559 3846.5 288.984 3916.44 288.984 3979.6 288.559 3991.46 287.71 4006.3 280.497Z" stroke="#2283D7" stroke-width="36.6667" stroke-miterlimit="8" fill="#2283D7" fill-rule="evenodd" transform="matrix(1 0 0 -1 -5769.5 -366.5)"/></g></svg>