<svg width="1540" height="1760" xmlns="http://www.w3.org/2000/svg" xmlns:xlink="http://www.w3.org/1999/xlink" overflow="hidden"><defs><clipPath id="clip0"><rect x="904" y="143" width="1540" height="1760"/></clipPath></defs><g clip-path="url(#clip0)" transform="translate(-904 -143)"><path d="M2415.81 832.219C2389.34 726 2339.16 645.906 2232.25 645.906L2094.41 645.906 2094.41 808.844C2094.41 935.344 1987.16 1041.91 1864.78 1041.91L1497.66 1041.91C1397.28 1041.91 1314.09 1127.84 1314.09 1228.56L1314.09 1578.5C1314.09 1678.19 1400.72 1736.62 1497.66 1765.16 1613.84 1799.19 1725.56 1805.38 1864.78 1765.16 1957.25 1738.34 2048.34 1684.38 2048.34 1578.5L2048.34 1438.59 1681.56 1438.59 1681.56 1391.84 2232.25 1391.84C2339.16 1391.84 2378.69 1317.25 2415.81 1205.53 2454.31 1090.38 2452.59 979.688 2415.81 832.219ZM1887.81 1531.75C1925.97 1531.75 1956.91 1563.03 1956.91 1601.53 1956.91 1640.38 1925.97 1671.66 1887.81 1671.66 1850 1671.66 1818.72 1640.03 1818.72 1601.53 1819.06 1562.69 1850 1531.75 1887.81 1531.75ZM1480.81 995.844 1847.94 995.844C1950.03 995.844 2031.5 911.625 2031.5 809.188L2031.5 458.906C2031.5 359.219 1947.62 284.625 1847.94 267.781 1724.88 247.5 1591.16 248.531 1480.81 268.125 1325.44 295.625 1297.25 353.031 1297.25 459.25L1297.25 599.156 1664.72 599.156 1664.72 645.906 1159.41 645.906C1052.5 645.906 959 710.188 929.781 832.219 896.094 972.125 894.719 1059.44 929.781 1205.53 955.906 1314.16 1018.13 1391.84 1125.03 1391.84L1251.19 1391.84 1251.19 1224.09C1251.19 1102.75 1356.03 995.844 1480.81 995.844ZM1457.78 505.656C1419.62 505.656 1388.69 474.375 1388.69 435.875 1389.03 397.031 1419.62 365.75 1457.78 365.75 1495.59 365.75 1526.88 397.375 1526.88 435.875 1526.88 474.375 1495.94 505.656 1457.78 505.656Z" fill="#F7CF58"/><path d="M1480.56 997.947 1847.52 997.947C1949.57 997.947 2031 913.717 2031 811.266L2031 460.938C2031 361.237 1947.16 286.634 1847.52 269.788 1724.51 249.504 1590.85 250.535 1480.56 270.131 1325.25 297.635 1297.08 355.049 1297.08 461.282L1297.08 601.207 1664.38 601.207 1664.38 647.963 1159.3 647.963C1052.44 647.963 958.978 712.253 929.773 834.3 896.1 974.225 894.726 1061.55 929.773 1207.66 955.886 1316.3 1018.08 1394 1124.94 1394L1251.04 1394 1251.04 1226.23C1251.04 1104.87 1355.83 997.947 1480.56 997.947ZM1457.54 507.694C1419.4 507.694 1388.47 476.409 1388.47 437.904 1388.82 399.055 1419.4 367.769 1457.54 367.769 1495.33 367.769 1526.6 399.399 1526.6 437.904 1526.6 476.409 1495.68 507.694 1457.54 507.694Z" fill="#426B95" fill-rule="evenodd"/></g></svg>