<svg width="2611" height="1324" xmlns="http://www.w3.org/2000/svg" xmlns:xlink="http://www.w3.org/1999/xlink" overflow="hidden"><defs><clipPath id="clip0"><rect x="469" y="202" width="2611" height="1324"/></clipPath></defs><g clip-path="url(#clip0)" transform="translate(-469 -202)"><rect x="469" y="202" width="2611" height="1324" fill="#FFFFFF"/><path d="M354.009-276.182C358.95-276.182 363.542-275.403 367.786-273.845 372.029-272.288 375.735-270.059 378.904-267.158 382.073-264.258 384.57-260.767 386.396-256.685 388.223-252.603 389.136-248.037 389.136-242.988 389.136-239.229 388.625-235.764 387.605-232.595 386.584-229.426 385.376-226.123 383.979-222.686 381.724-217.207 379.656-211.648 377.776-206.008 375.896-200.369 373.828-194.81 371.572-189.331L371.411-189.492C364.536-172.52 357.366-156.782 349.9-142.28 342.434-127.778 334.028-114.27 324.683-101.755 315.337-89.2407 304.675-77.5854 292.698-66.7895 280.72-55.9936 266.728-45.9228 250.723-36.5771L225.264 32.8711C224.404 35.1269 222.981 36.9531 220.994 38.3496 219.006 39.7461 216.777 40.4443 214.307 40.4443 211.191 40.4443 208.506 39.3164 206.25 37.0605L77.1826-92.0068C74.9268-94.2627 73.7988-96.9482 73.7988-100.063 73.7988-102.534 74.4971-104.763 75.8935-106.75 77.29-108.738 79.1162-110.161 81.3721-111.021L142.764-133.579C149.209-144.536 156.675-154.741 165.161-164.194 173.647-173.647 182.51-182.617 191.748-191.104 207.646-205.82 225.022-218.791 243.874-230.017 262.727-241.243 282.09-251.045 301.963-259.424L301.802-259.585C307.28-261.841 312.786-263.909 318.318-265.789 323.85-267.668 329.355-269.683 334.834-271.831 338.057-273.12 341.145-274.167 344.099-274.973 347.053-275.779 350.356-276.182 354.009-276.182Z" fill="#CA0B4A" transform="translate(1547.77 978)"/><path d="M362.549-198.354C359.004-189.546 354.976-180.173 350.464-170.237 345.952-160.3 341.038-150.444 335.72-140.669 330.403-130.894 324.683-121.575 318.56-112.712 312.436-103.85 306.045-96.0351 299.385-89.2676 290.254-80.0293 281.15-71.9458 272.073-65.0171 262.996-58.0884 253.677-51.8042 244.116-46.1645 234.556-40.5249 224.592-35.3418 214.226-30.6152 203.86-25.8887 192.822-21.1084 181.113-16.2744L128.262-68.9648 134.707-86.5283 134.868-86.6894C137.554-94.209 140.4-101.567 143.408-108.765 146.416-115.962 149.961-122.998 154.043-129.873 160.059-139.863 167.041-149.182 174.99-157.83 182.939-166.477 191.157-174.722 199.644-182.563 207.485-189.761 215.837-196.609 224.7-203.108 233.562-209.607 242.72-215.703 252.173-221.396 261.626-227.09 271.294-232.354 281.177-237.187 291.06-242.021 300.942-246.479 310.825-250.561Z" fill="#F4F4F4" transform="translate(1547.77 978)"/><path d="M325.005-170.801C325.005-165.645 324.011-160.784 322.024-156.218 320.037-151.653 317.351-147.678 313.967-144.294 310.583-140.911 306.582-138.225 301.963-136.238 297.344-134.25 292.456-133.257 287.3-133.257 282.144-133.257 277.283-134.25 272.717-136.238 268.152-138.225 264.177-140.911 260.793-144.294 257.41-147.678 254.724-151.653 252.737-156.218 250.749-160.784 249.756-165.645 249.756-170.801 249.756-175.957 250.749-180.845 252.737-185.464 254.724-190.083 257.41-194.084 260.793-197.468 264.177-200.852 268.152-203.538 272.717-205.525 277.283-207.512 282.144-208.506 287.3-208.506 292.456-208.506 297.344-207.512 301.963-205.525 306.582-203.538 310.583-200.852 313.967-197.468 317.351-194.084 320.037-190.083 322.024-185.464 324.011-180.845 325.005-175.957 325.005-170.801Z" fill="#9B9B9B" transform="translate(1547.77 978)"/><path d="M313.403-170.801C313.403-167.148 312.705-163.738 311.309-160.569 309.912-157.4 308.032-154.661 305.669-152.351 303.306-150.041 300.54-148.215 297.371-146.873 294.202-145.53 290.845-144.858 287.3-144.858 283.755-144.858 280.398-145.53 277.229-146.873 274.06-148.215 271.294-150.068 268.931-152.432 266.567-154.795 264.714-157.561 263.372-160.73 262.029-163.899 261.357-167.256 261.357-170.801 261.357-174.346 262.029-177.703 263.372-180.872 264.714-184.041 266.54-186.807 268.85-189.17 271.16-191.533 273.899-193.413 277.068-194.81 280.237-196.206 283.647-196.904 287.3-196.904 290.952-196.904 294.363-196.233 297.532-194.89 300.701-193.547 303.467-191.694 305.83-189.331 308.193-186.968 310.046-184.202 311.389-181.033 312.732-177.864 313.403-174.453 313.403-170.801Z" fill="#83CBFF" transform="translate(1547.77 978)"/><path d="M65.4199 23.8477C65.4199 18.6914 65.9033 13.1592 66.8701 7.25098 67.8369 1.34277 69.4214-4.35059 71.6235-9.8291 73.8257-15.3076 76.6992-20.2759 80.2441-24.7339 83.7891-29.1919 88.1396-32.5488 93.2959-34.8047 96.0889-35.9863 99.4189-36.8726 103.286-37.4634 107.153-38.0542 110.537-38.3496 113.437-38.3496 118.916-38.3496 124.045-37.3828 128.826-35.4492 133.606-33.5156 137.822-30.8569 141.475-27.4731 145.127-24.0894 148-20.0342 150.095-15.3076 152.19-10.5811 153.237-5.47851 153.237 0 153.237 4.08203 152.593 7.94922 151.304 11.6016 149.8 15.5762 147.517 19.4165 144.456 23.1226 141.394 26.8286 137.849 30.1318 133.821 33.0322 129.792 35.9326 125.522 38.269 121.011 40.0415 116.499 41.814 112.095 42.7002 107.798 42.7002 106.831 42.7002 105.864 42.5391 104.897 42.2168 103.931 41.8945 103.447 41.1426 103.447 39.9609 103.447 39.1016 103.635 38.269 104.011 37.4634 104.387 36.6577 104.575 35.8252 104.575 34.9658 104.575 33.5693 103.877 32.8711 102.48 32.8711 101.621 32.8711 100.144 33.3813 98.0493 34.4019 95.9546 35.4224 93.5376 36.5771 90.7983 37.8662 88.0591 39.1553 85.1587 40.3101 82.0972 41.3306 79.0356 42.3511 76.1084 42.8613 73.3154 42.8613 71.2744 42.8613 69.7168 42.1362 68.6426 40.686 67.5684 39.2358 66.7895 37.4902 66.3061 35.4492 65.8227 33.4082 65.5542 31.3135 65.5005 29.165 65.4468 27.0166 65.4199 25.2441 65.4199 23.8477Z" fill="#FF8257" transform="translate(1547.77 978)"/><path d="M123.75-62.1973C126.006-62.1973 128.208-61.7676 130.356-60.9082 132.505-60.0488 134.385-58.8135 135.996-57.2021L176.924-16.2744C178.535-14.6631 179.77-12.7832 180.63-10.6348 181.489-8.48633 181.919-6.28418 181.919-4.02832 181.919-1.66504 181.462 0.563965 180.549 2.65869 179.636 4.75342 178.401 6.60644 176.843 8.21777 175.286 9.8291 173.459 11.0913 171.365 12.0044 169.27 12.9175 167.041 13.374 164.678 13.374 159.951 13.374 155.869 11.6553 152.432 8.21777L111.504-32.71C109.893-34.3213 108.63-36.1743 107.717-38.269 106.804-40.3638 106.348-42.5928 106.348-44.9561 106.348-47.3193 106.804-49.5483 107.717-51.6431 108.63-53.7378 109.893-55.564 111.504-57.1216 113.115-58.6792 114.968-59.9145 117.063-60.8276 119.158-61.7407 121.387-62.1973 123.75-62.1973Z" fill="#533566" transform="translate(1547.77 978)"/><path d="M222.041-90.2344C222.041-89.2676 221.934-88.2739 221.719-87.2534 221.504-86.2329 221.235-85.2393 220.913-84.2725L190.459-1.93359C189.6 0.322266 188.176 2.14844 186.189 3.54492 184.202 4.94141 181.973 5.63965 179.502 5.63965 176.387 5.63965 173.701 4.51172 171.445 2.25586L111.987-57.2021C109.731-59.458 108.604-62.1435 108.604-65.2588 108.604-67.7295 109.302-69.9585 110.698-71.9458 112.095-73.9331 113.921-75.3564 116.177-76.2158L198.516-106.67C199.482-106.992 200.476-107.261 201.497-107.476 202.517-107.69 203.511-107.798 204.478-107.798 206.841-107.798 209.097-107.341 211.245-106.428 213.394-105.515 215.273-104.253 216.885-102.642 218.496-101.03 219.758-99.1504 220.671-97.0019 221.584-94.8535 222.041-92.5976 222.041-90.2344Z" fill="#F92F60" transform="translate(1547.77 978)"/></g></svg>