<svg width="733" height="441" xmlns="http://www.w3.org/2000/svg" xmlns:xlink="http://www.w3.org/1999/xlink" overflow="hidden"><defs><clipPath id="clip0"><rect x="1452" y="58" width="733" height="441"/></clipPath><clipPath id="clip1"><rect x="1697" y="-184" width="244" height="617"/></clipPath><clipPath id="clip2"><rect x="1452" y="-492" width="246" height="1541"/></clipPath><clipPath id="clip3"><rect x="1697" y="-492" width="244" height="1541"/></clipPath><clipPath id="clip4"><rect x="1940" y="-492" width="245" height="1541"/></clipPath></defs><g clip-path="url(#clip0)" transform="translate(-1452 -58)"><text font-family="Times New Roman,Times New Roman_MSFontService,sans-serif" font-weight="400" font-size="73" transform="matrix(1 0 0 1 1542.25 151)">Li</text><g clip-path="url(#clip1)"><text font-family="Times New Roman,Times New Roman_MSFontService,sans-serif" font-weight="400" font-size="73" transform="matrix(1 0 0 1 1714.77 151)">Hsiang</text></g><text font-family="Times New Roman,Times New Roman_MSFontService,sans-serif" font-weight="400" font-size="73" transform="matrix(1 0 0 1 2013.62 151)">Jen</text><g clip-path="url(#clip2)"><text font-family="STZhongsong,STZhongsong_MSFontService,sans-serif" font-weight="700" font-size="183" transform="matrix(1 0 0 1 1483.24 344)">李</text></g><g clip-path="url(#clip3)"><text font-family="STZhongsong,STZhongsong_MSFontService,sans-serif" font-weight="700" font-size="183" transform="matrix(1 0 0 1 1727.09 344)">享</text></g><g clip-path="url(#clip4)"><text font-family="STZhongsong,STZhongsong_MSFontService,sans-serif" font-weight="700" font-size="183" transform="matrix(1 0 0 1 1970.93 344)">紝</text></g></g></svg>